<svg width="512" height="347" viewBox="0 0 512 347" fill="none" xmlns="http://www.w3.org/2000/svg">
    <defs>
        <linearGradient id="paint0_linear_1001_2884" x1="400.733" y1="145.15" x2="325.545"
            y2="141.049" gradientUnits="userSpaceOnUse">
            <stop stop-color="#92A3FD" />
            <stop offset="1" stop-color="#9DCEFF" />
        </linearGradient>
        <linearGradient id="paint1_linear_1001_2884" x1="241.62" y1="250.155" x2="49.2894"
            y2="234.936" gradientUnits="userSpaceOnUse">
            <stop stop-color="#92A3FD" />
            <stop offset="1" stop-color="#9DCEFF" />
        </linearGradient>
        <linearGradient id="paint2_linear_1001_2884" x1="511.452" y1="341.37" x2="394.613"
            y2="327.387" gradientUnits="userSpaceOnUse">
            <stop stop-color="#92A3FD" />
            <stop offset="1" stop-color="#9DCEFF" />
        </linearGradient>
        <clipPath id="clip0_1001_2884">
            <rect width="512" height="346.975" fill="white" />
        </clipPath>
    </defs>
    <g clip-path="url(#clip0_1001_2884)">
        <path
            d="M204.078 133.461C204.078 133.461 214.505 49.3027 212.151 18.5673C210.944 2.80254 203.263 -0.764017 191.524 0.135115C179.785 1.03425 112.654 36.475 112.654 36.475L122.22 59.4029L178.05 41.9598C178.05 41.9598 172.361 74.7031 171.048 80.9221C169.736 87.1411 166.99 95.5181 164.802 103.026C163.73 106.727 162.236 111.523 162.236 113.845C162.267 119.33 204.078 133.461 204.078 133.461Z"
            fill="#FFEDE5" />
        <path
            d="M178.05 41.9604C185.836 40.4618 193.607 35.8912 196.051 32.2498C194.796 36.3444 192.024 39.8144 188.295 41.9604C184.746 44.2332 180.987 46.1651 177.069 47.7298L178.05 41.9604Z"
            fill="#F28F8F" />
        <path
            d="M309.762 131.962C308.6 127.676 301.025 123.165 278.452 119.404C255.879 115.643 235.343 119.404 235.222 122.056C235.101 124.709 240.79 142.437 266.818 145.674C292.847 148.91 312.146 141.373 309.762 131.962Z"
            fill="#263238" />
        <path
            d="M241.861 168.395C241.861 168.395 227.15 73.6263 229.262 54.28C231.45 34.2893 239.085 25.0132 251.896 23.7095C268.629 33.3602 277.547 56.4229 288.245 79.156C298.943 101.889 310.531 150.652 311.15 173.955C311.769 197.257 293.209 213.861 272.19 216.888C251.171 219.915 241.861 168.395 241.861 168.395Z"
            fill="#FFEDE5" />
        <path
            d="M264.977 94.2002C258.188 88.7802 253.601 81.1056 252.061 72.5911L273.11 65.3081L287.309 77.0418L287.731 77.9559C287.912 78.3455 288.093 78.7351 288.289 79.1248C288.697 79.9939 289.104 80.908 289.512 81.8371C289.617 82.1069 289.738 82.3766 289.859 82.6613C290.175 83.3807 290.477 84.1599 290.794 84.9092L291.111 85.6884C291.533 86.7224 291.941 87.7864 292.363 88.8803C292.771 89.9743 293.178 91.0982 293.586 92.2371C293.676 92.4919 293.767 92.7316 293.842 92.9714L294.928 96.1184C294.928 96.2682 295.034 96.433 295.094 96.5829C295.939 99.1304 296.784 101.768 297.599 104.465L297.735 104.9C298.142 106.234 298.535 107.582 298.927 108.946C298.927 108.946 279.372 106.159 264.977 94.2002Z"
            fill="#F28F8F" />
        <path
            d="M247.458 24.5192C255.455 21.3872 265.188 28.7152 270.333 32.012C280.79 38.6656 344.722 88.1478 359.63 99.7466C362.859 101.695 366.148 103.568 369.498 105.336L351.934 132.61C350.492 128.69 348.235 125.116 345.31 122.12C329.376 110.821 298.535 104.662 278.677 96.9893C263.226 90.9951 259.997 87.6383 254.792 78.8718C250.808 71.9335 236.428 29.7042 247.458 24.5192Z"
            fill="#FFEDE5" />
        <path
            d="M241.544 168.919L235.221 122.059C235.221 122.059 240.895 134.977 270.107 138.378C299.319 141.78 310.5 136.88 309.761 131.965C309.761 131.965 317.396 161.306 314.439 180.368C311.481 199.429 282.163 219.735 282.163 219.735L241.544 168.919Z"
            fill="#37474F" />
        <path opacity="0.15"
            d="M254.476 175.331C251.79 175.331 249.27 175.496 246.931 175.646L279.403 216.212H286.947C295.367 209.573 312.252 194.647 314.455 180.411C316.628 166.429 313.097 146.948 311.06 137.537C312.222 148.357 287.853 174.627 254.476 175.331Z"
            fill="black" />
        <path
            d="M400.719 65.682C390.156 63.7339 385.252 71.3016 381.36 77.5506C377.467 83.7995 370.948 95.2635 368.036 97.1966C365.124 99.1297 363.509 97.1966 359.36 100.299C355.21 103.401 352.177 109.29 353.46 111.433L356.478 116.648C354.738 116.459 352.978 116.679 351.339 117.29C349.701 117.902 348.231 118.889 347.047 120.169C342.521 124.665 344.874 125.414 347.424 127.962C349.974 130.509 355.965 142.018 361.97 145.15C361.97 145.15 378.146 140.34 389.87 122.118C401.594 103.895 400.719 65.682 400.719 65.682Z"
            fill="url(#paint0_linear_1001_2884)" />
        <path
            d="M365.307 147.564C364.688 147.455 364.099 147.219 363.577 146.871C363.055 146.523 362.612 146.071 362.275 145.544C361.939 145.017 361.717 144.426 361.623 143.809C361.529 143.192 361.566 142.562 361.731 141.959C363.518 136.34 366.203 131.043 369.682 126.27C373.741 120.545 381.346 109.785 382.629 103.896C383.911 98.0068 386.673 81.5077 391.184 74.5994C395.696 67.6911 400.328 63.7049 406.273 65.9378C412.218 68.1706 393.448 112.393 387.94 119.886C382.433 127.378 365.307 147.564 365.307 147.564Z"
            fill="#37474F" />
        <path
            d="M368.773 146.604C383.636 138.737 388.525 131.094 392.916 121.129C397.307 111.163 407.567 101.977 410.223 93.0307C412.878 84.0843 413.15 61.1414 402.935 66.7011C392.72 72.2607 390.592 92.7759 386.111 104.629C381.629 116.483 354.197 154.352 368.773 146.604Z"
            fill="#263238" />
        <path
            d="M279.448 170.836C286.238 169.802 299.29 172.589 311.135 189.013C323.855 206.651 326.224 237.431 318.242 239.964C318.242 239.964 299.743 237.806 287.038 231.197C274.333 224.589 252.982 179.947 279.448 170.836Z"
            fill="#263238" />
        <path
            d="M496.429 317.694C476.723 310.007 460.592 296.789 446.635 282.014C435.409 266.878 387.305 202.066 378.961 192.94C375.943 189.703 368.791 181.371 358.877 179.288C323.78 171.795 258.792 172.904 258.792 172.904L233.805 168.723L184.011 215.268C190.876 222.536 199.492 228.875 212.092 235.394C224.691 241.912 238.316 246.648 256.695 245.104C293.482 242.017 315.542 231.692 335.233 227.122C340.937 225.803 346.852 224.589 351.333 233.88C355.814 243.171 356.177 247.832 369.44 257.707C386.445 270.385 414.526 284.561 426.778 299.667C428.796 303.37 429.999 307.456 430.309 311.655C431.471 327.585 444.93 324.453 455.779 331.376C461.694 335.152 466.085 339.738 473.207 341.296C479.691 342.621 486.392 342.499 492.823 340.937C498.617 339.573 506.916 335.422 509.767 329.818C513.51 322.355 502.102 319.897 496.429 317.694Z"
            fill="#FFEDE5" />
        <path
            d="M496.429 317.694C476.723 310.007 460.592 296.789 446.635 282.014C435.409 266.878 387.305 202.066 378.961 192.94C375.943 189.703 368.791 181.371 358.877 179.288C323.78 171.795 258.792 172.904 258.792 172.904L233.805 168.723L184.011 215.268C190.876 222.536 199.492 228.875 212.092 235.394C224.691 241.912 238.316 246.648 256.695 245.104C293.482 242.017 315.542 231.692 335.233 227.122C340.937 225.803 346.852 224.589 351.333 233.88C355.814 243.171 356.177 247.832 369.44 257.707C386.445 270.385 414.526 284.561 426.778 299.667C428.796 303.37 429.999 307.456 430.309 311.655C431.471 327.585 444.93 324.453 455.779 331.376C461.694 335.152 466.085 339.738 473.207 341.296C479.691 342.621 486.392 342.499 492.823 340.937C498.617 339.573 506.916 335.422 509.767 329.818C513.51 322.355 502.102 319.897 496.429 317.694Z"
            fill="#FFEDE5" />
        <path
            d="M368.309 250.155C364.573 246.043 361.737 241.206 359.98 235.949C358.63 231.555 356.893 227.288 354.789 223.196C348.663 212.706 308.013 226.089 290.012 231.573C289.001 233.072 284.776 237.567 283.267 241.314C305.071 236.893 320.763 230.464 335.204 227.108C340.907 225.789 346.822 224.575 351.304 233.866C355.785 243.157 356.147 247.818 369.41 257.693C376.321 262.848 385.058 268.183 393.824 273.862C384.032 266.31 376.653 258.742 368.309 250.155Z"
            fill="#F28F8F" />
        <path
            d="M237.667 168.723C237.667 168.723 273.383 170.461 279.449 170.896C279.449 170.896 266.004 174.492 282.361 207.326C298.717 240.159 318.257 239.979 318.257 239.979C292.606 248.131 279.283 257.287 246.585 253.466C207.61 247.877 183.98 218.895 183.98 218.895L237.667 168.723Z"
            fill="#455A64" />
        <path opacity="0.15"
            d="M318.167 239.979C317.87 239.998 317.573 239.998 317.277 239.979V239.979C314.364 239.65 305.703 237.761 296.001 227.496C288.299 229.537 280.485 231.133 272.598 232.277C243.446 236.518 221.582 231.408 189.005 214.159L183.98 218.865C196.909 233.344 213.494 244.136 232.024 250.125V250.125C233.156 250.469 234.317 250.814 235.494 251.129C236.596 251.413 237.712 251.698 238.829 251.953L239.131 252.028C240.157 252.267 241.213 252.477 242.269 252.687L242.828 252.792C244.065 253.032 245.302 253.242 246.57 253.421C248.622 253.661 250.583 253.841 252.485 253.991C254.386 254.141 256.211 254.216 257.992 254.276H260.602C261.462 254.276 262.307 254.276 263.137 254.276C265.627 254.276 267.996 254.081 270.274 253.856C271.783 253.706 273.262 253.526 274.711 253.316C278.199 252.792 281.655 252.071 285.062 251.159C286.389 250.799 287.702 250.424 289 250.02C292.274 249.031 295.503 247.922 298.823 246.723L302.852 245.224C307.62 243.486 312.629 241.658 318.242 239.874L318.167 239.979Z"
            fill="black" />
        <path
            d="M118.238 124.022C103.722 129.027 90.0061 137.779 101.64 163.389C118.238 200.373 193.471 241.434 232.099 250.155C212.484 220.679 228.81 189.434 241.62 168.919L238.165 143.863C238.165 143.863 226.577 138.333 207.383 123.602C188.19 108.872 180.223 104.87 151.66 113.502C132.029 119.436 118.238 124.022 118.238 124.022Z"
            fill="url(#paint1_linear_1001_2884)" />
        <path opacity="0.05"
            d="M177.038 207.61C137.535 185.131 125.117 165.111 109.62 145.884L99.4805 158.172C99.7521 158.967 100.054 159.776 100.386 160.615C100.38 160.66 100.38 160.705 100.386 160.75C100.718 161.604 101.095 162.488 101.502 163.387C108.866 179.572 127.35 196.535 149.078 211.296C152.096 213.394 155.355 215.447 158.554 217.44C160.168 218.444 161.783 219.433 163.413 220.437C174.463 227.008 185.901 232.913 197.665 238.12C208.702 243.18 220.195 247.194 231.992 250.109C227.696 243.767 224.824 236.581 223.572 229.039C209.841 224.933 195.115 217.905 177.038 207.61Z"
            fill="black" />
        <path
            d="M107.343 129.043C107.343 129.043 58.6208 103.178 50.9103 99.6861L93.5518 74.8251L84.4984 51.4927C84.4984 51.4927 21.1246 73.8661 9.0534 80.2949C2.73111 83.6966 0 86.4989 0 91.3242C0 99.3714 7.71048 109.801 18.3935 118.838C41.1024 138.064 71.9142 155.972 101.926 172.336C108.807 177.401 115.959 183.77 115.959 183.77C123.851 187.696 135.333 151.461 107.343 129.043Z"
            fill="#FFEDE5" />
        <path
            d="M152.956 39.1428C149.913 32.126 144.188 26.5973 137.04 23.7729C129.892 20.9485 121.907 21.0598 114.842 24.0824C107.776 27.1049 102.209 32.7911 99.3655 39.89C96.5216 46.9889 96.6337 54.919 99.6771 61.9358C99.8732 62.4154 100.115 62.8499 100.341 63.2995L92.9776 79.2142L82.0984 59.2984C82.1029 57.7296 81.5201 56.2153 80.4633 55.0494C79.4064 53.8835 77.951 53.1493 76.3797 52.9895C75.5828 52.9219 74.7804 53.016 74.0213 53.266C73.2621 53.516 72.5621 53.9167 71.9637 54.4437C71.3653 54.9707 70.8811 55.613 70.5404 56.3317C70.1997 57.0503 70.0097 57.8302 69.9819 58.624L78.296 59.3433C76.4716 60.5451 75.073 62.2853 74.2974 64.3185C72.3207 69.4436 79.2013 79.8885 88.4207 89.0597C88.4207 89.0597 101.473 107.357 104.641 109.92C106.683 111.463 109.243 112.171 111.794 111.898L112.578 75.9323C117.878 78.773 123.937 79.9037 129.913 79.1674C135.89 78.4311 141.487 75.8644 145.927 71.8238C150.367 67.7831 153.43 62.4693 154.69 56.6206C155.949 50.7719 155.344 44.6788 152.956 39.1878V39.1428Z"
            fill="#263238" />
        <path
            d="M99.3921 85.4195C98.185 87.0829 94.5033 84.9699 91.5911 83.7411C88.6789 82.5123 80.8779 82.4673 80.5761 90.7244C80.2743 98.9814 90.4896 105.71 96.3592 105.095C106.469 104.061 105.413 97.8125 105.413 97.8125L120.26 130.466C137.447 139.817 169.435 125.101 150.242 115.855L146.002 106.159C149.671 105.18 153.214 103.788 156.564 102.008C162.6 98.2022 164.577 91.3088 163.505 83.4114C161.8 70.7486 158.979 61.098 146.696 39.9534C133.116 16.8457 104.447 28.8041 93.2509 45.0335C82.0548 61.2628 99.3921 85.4195 99.3921 85.4195Z"
            fill="#FFEDE5" />
        <path
            d="M100.582 88.1915C99.7671 88.5661 94.4105 84.7598 91.5285 83.7857C87.6204 82.452 81.2679 57.8907 81.2679 57.8907C81.2679 57.8907 76.0773 53.3201 78.9291 45.0781C81.2679 38.3196 89.8988 33.794 95.8741 30.7969C106.648 25.3871 118.704 19.228 123.985 7.89895C124.407 6.99982 125.011 5.98081 126.007 5.96582C126.316 5.99322 126.617 6.08154 126.892 6.22563C127.166 6.36971 127.409 6.56667 127.606 6.80501C130.094 9.57853 131.497 13.1465 131.56 16.8603C131.56 17.205 131.665 17.6396 132.012 17.7445C132.359 17.8494 132.616 17.5646 132.827 17.3099C133.923 15.9772 134.757 14.4523 135.287 12.8142C136.011 10.5814 139.813 16.2609 140.085 17.0401C140.974 19.5055 141.358 22.1228 141.213 24.7377C141.068 27.3526 140.397 29.9121 139.24 32.2654C136.886 36.9559 132.042 39.8631 127.606 42.4256C117.723 48.1501 100.823 53.6048 98.4694 54.2492C95.2705 55.1334 95.8892 58.3253 97.6999 66.9719C99.3596 74.6146 103.313 86.9177 100.582 88.1915Z"
            fill="#263238" />
        <path
            d="M146.001 106.158C146.001 106.158 128.347 109.86 122.07 109.395C118.387 109.13 114.873 107.761 111.99 105.469C114.039 108.111 116.606 110.313 119.535 111.943C125.329 115.09 147.661 110.07 147.661 110.07L146.001 106.158Z"
            fill="#F28F8F" />
        <path
            d="M118.42 60.5292L113.169 66.2238C112.412 65.4931 111.97 64.5004 111.933 63.4531C111.897 62.4058 112.269 61.385 112.973 60.6042C113.322 60.2381 113.741 59.9452 114.206 59.7427C114.672 59.5403 115.173 59.4324 115.68 59.4254C116.188 59.4184 116.692 59.5125 117.163 59.7021C117.633 59.8917 118.061 60.1729 118.42 60.5292V60.5292Z"
            fill="#263238" />
        <path
            d="M135.333 89.6167L143.103 89.2571C143.151 89.7648 143.095 90.2767 142.938 90.7624C142.782 91.248 142.529 91.6973 142.193 92.0834C141.858 92.4696 141.448 92.7846 140.987 93.0096C140.526 93.2346 140.025 93.3651 139.512 93.3931C138.459 93.4225 137.435 93.0456 136.656 92.3415C135.877 91.6374 135.402 90.6608 135.333 89.6167V89.6167Z"
            fill="#F28F8F" />
        <path
            d="M150.378 51.4909L142.833 49.5728C142.936 49.0737 143.139 48.6006 143.431 48.1821C143.723 47.7635 144.098 47.4082 144.533 47.1378C144.967 46.8673 145.453 46.6874 145.959 46.6088C146.466 46.5302 146.984 46.5546 147.48 46.6806C148.489 46.9655 149.35 47.6217 149.889 48.5156C150.427 49.4094 150.602 50.4735 150.378 51.4909V51.4909Z"
            fill="#263238" />
        <path d="M134.278 63.2241L139.423 81.6114L148.476 76.1567L134.278 63.2241Z"
            fill="#F28F8F" />
        <path
            d="M119.957 71.4677C119.96 72.131 120.161 72.7785 120.534 73.3285C120.907 73.8786 121.436 74.3065 122.054 74.5582C122.672 74.81 123.351 74.8743 124.005 74.7431C124.66 74.6119 125.261 74.291 125.732 73.821C126.203 73.351 126.524 72.7528 126.653 72.1021C126.782 71.4514 126.714 70.7772 126.458 70.1647C126.202 69.5522 125.768 69.0288 125.213 68.6606C124.657 68.2925 124.005 68.096 123.337 68.0959C122.892 68.0959 122.451 68.1833 122.04 68.3529C121.629 68.5225 121.255 68.7711 120.941 69.0844C120.627 69.3977 120.379 69.7695 120.21 70.1785C120.041 70.5875 119.955 71.0256 119.957 71.4677V71.4677Z"
            fill="#263238" />
        <path
            d="M144.418 61.9525C144.416 62.5969 144.605 63.2277 144.964 63.7647C145.323 64.3018 145.834 64.7209 146.433 64.9689C147.032 65.2169 147.691 65.2825 148.328 65.1575C148.964 65.0325 149.549 64.7225 150.008 64.2668C150.467 63.8112 150.779 63.2304 150.905 62.5982C151.031 61.966 150.965 61.3109 150.715 60.7161C150.465 60.1213 150.043 59.6136 149.503 59.2574C148.962 58.9012 148.327 58.7126 147.678 58.7156C146.815 58.7196 145.988 59.0618 145.377 59.668C144.767 60.2742 144.422 61.0952 144.418 61.9525V61.9525Z"
            fill="#263238" />
        <path
            d="M428.345 314.998C427.062 315.867 429.054 321.351 430.216 322.7C432.636 325.037 435.626 326.71 438.892 327.555C444.833 329.362 450.384 332.249 455.264 336.067C461.282 340.906 468.282 344.398 475.785 346.302C484.687 348.265 494.978 345.763 503.956 340.473C513.372 334.943 512.496 329.638 511.214 326.102L428.345 314.998Z"
            fill="#37474F" />
        <path
            d="M448.716 284.219C451.734 287.395 468.151 303.52 480.75 307.626C490.784 310.893 503.836 314.01 509.555 320.079C515.5 326.403 506.643 334.495 494.466 339.141C481.761 343.966 473.13 340.07 464.696 335.859C458.766 332.862 450.029 326.867 445.638 324.455C441.247 322.042 433.114 320.723 429.719 317.142C427.848 315.164 426.505 309.649 425.691 304.809C424.951 300.313 421.964 296.252 423.488 296.012L425.962 298.695C437.43 300.793 449.38 290.273 448.716 284.219Z"
            fill="url(#paint2_linear_1001_2884)" />
        <path
            d="M50.911 99.6848C43.6799 103.564 35.8709 106.271 27.7795 107.702C27.7795 107.702 40.5901 110.894 55.83 102.127L50.911 99.6848Z"
            fill="#F28F8F" />
    </g>

</svg>
