<svg width="513" height="320" viewBox="0 0 513 320" fill="none" xmlns="http://www.w3.org/2000/svg">
    <path fill-rule="evenodd" clip-rule="evenodd"
        d="M472.282 273.655C472.282 295.74 371.901 319.953 265.427 319.953C158.953 319.953 71.8979 281.574 71.8979 259.489C71.8979 237.404 173.068 233.687 279.515 233.687C385.961 233.687 472.282 251.57 472.282 273.655Z"
        fill="#E2CAB3" />
    <path fill-rule="evenodd" clip-rule="evenodd"
        d="M488.768 296.198C489.067 307.995 463.421 318.229 431.466 319.037C399.51 319.845 373.347 310.957 373.048 299.134C372.749 287.31 398.395 277.103 430.351 276.295C462.306 275.487 488.469 284.374 488.768 296.198Z"
        fill="#E2CAB3" />
    <path fill-rule="evenodd" clip-rule="evenodd"
        d="M23.4892 212.247C6.46432 252.216 27.1879 273.143 54.7922 276.59C65.6707 277.937 81.9885 270.476 94.0637 265.817C103.889 261.495 113.216 256.141 121.886 249.846C125.992 245.671 130.833 239.988 131.812 233.686C131.944 231.25 131.418 228.824 130.289 226.657C130.596 225.748 131.046 224.894 131.622 224.125C133.09 221.432 129.12 219.358 131.105 216.341C134.26 211.52 130.099 206.322 128.059 202.04C127.379 200.666 109.838 185.234 109.022 183.753C94.39 168.428 90.4466 161.21 70.3213 158.059C45.0559 154.073 20.552 163.203 23.4892 212.247Z"
        fill="#5F825C" />
    <g style="mix-blend-mode:multiply" opacity="0.4">
        <path fill-rule="evenodd" clip-rule="evenodd"
            d="M32.633 197.491C35.5158 197.841 36.93 205.57 35.7333 214.835C34.5367 224.1 31.2732 231.21 28.3631 230.86C25.4531 230.51 24.0933 222.781 25.2628 213.516C26.4322 204.251 29.587 197.114 32.633 197.491Z"
            fill="#5F825C" />
    </g>
    <path fill-rule="evenodd" clip-rule="evenodd"
        d="M35.3527 240.823C29.1791 243.517 29.7503 251.408 32.2523 256.525C32.3137 256.606 32.3598 256.697 32.3883 256.794C32.9759 257.973 33.7065 259.077 34.564 260.08C37.5948 263.901 41.7771 266.666 46.5032 267.972C52.432 269.453 59.2311 268.456 62.6578 263.797C62.7417 263.654 62.878 263.547 63.0386 263.501V262.908C62.2771 259.892 57.5993 259.299 55.0972 258.922C49.658 258.087 48.0534 253.347 46.3944 248.957C44.7354 244.567 40.792 238.345 35.3527 240.823Z"
        fill="#8DB54F" />
    <g style="mix-blend-mode:multiply" opacity="0.4">
        <path fill-rule="evenodd" clip-rule="evenodd"
            d="M91.2129 181.463C86.1816 184.156 90.8594 190.243 93.2798 193.125C98.7191 199.804 106.171 204.598 110.713 212.193C115.254 219.788 109.326 231.558 116.587 237.968C116.937 238.277 117.346 238.515 117.79 238.666C118.233 238.818 118.703 238.881 119.171 238.85C119.639 238.82 120.097 238.698 120.517 238.491C120.937 238.284 121.312 237.996 121.618 237.645C121.937 237.136 122.175 236.582 122.326 236.002C123.209 234.884 123.899 233.628 124.365 232.285C125.589 228.071 125.427 223.581 123.903 219.465C122.761 215.775 125.317 212.193 124.202 208.503C123.691 207.128 122.873 205.885 121.809 204.867C120.693 203.586 119.413 202.454 118.001 201.501C115.369 199.333 112.939 196.935 110.74 194.337C108.106 191.245 105.213 188.38 102.091 185.772C98.8007 182.675 94.5309 179.658 91.2129 181.463Z"
            fill="#5F825C" />
    </g>
    <path fill-rule="evenodd" clip-rule="evenodd"
        d="M28.1153 214.726C25.3957 214.269 23.6823 213.191 14.8979 211.037C6.11345 208.882 1.65326 208.397 0.293441 207.589C-1.06638 206.781 2.74111 202.553 2.74111 202.553C2.74111 202.553 9.32262 205.057 14.7347 207.051C20.1468 209.044 30.0462 211.683 30.0462 211.683C30.0462 211.683 31.5964 212.545 30.9709 213.945C30.3454 215.346 28.1153 214.726 28.1153 214.726Z"
        fill="#300D33" />
    <path fill-rule="evenodd" clip-rule="evenodd"
        d="M489.533 136.864C482.163 138.561 475.935 142.978 468.265 143.355C460.106 143.759 451.947 140.392 443.979 138.857C426.655 135.517 408.923 133.659 391.408 131.747C356.053 127.869 320.236 126.199 284.744 122.159C249.253 118.119 214.034 113.513 178.516 113.675C161.404 113.718 144.327 115.195 127.468 118.092C113.571 120.489 99.4286 123.29 87.7886 131.558C78.8298 138.084 72.0785 147.146 68.4248 157.548C63.6926 170.207 88.6861 247.72 92.4664 252.81C125.32 295.902 180.474 305.329 271.228 303.524C368.21 301.585 405.686 290.893 433.155 266.869C447.922 253.968 460.351 220.787 462.581 214.296C466.361 202.849 470.55 191.565 474.466 180.172C476.941 172.954 479.524 165.817 482.625 158.841C485.905 152.288 488.634 145.478 490.784 138.48C490.846 138.289 490.86 138.087 490.825 137.89C490.791 137.693 490.708 137.507 490.585 137.348C490.462 137.189 490.302 137.062 490.119 136.978C489.936 136.894 489.735 136.855 489.533 136.864V136.864Z"
        fill="#DA840D" />
    <path fill-rule="evenodd" clip-rule="evenodd"
        d="M474.837 142.169C462.462 150.787 444.649 151.138 430.153 153.966C394.363 160.968 358.681 165.789 322.157 164.927C286.421 164.119 250.657 159.945 215.057 157.036C178.669 154.073 142.198 151.946 105.701 153.588C97.6382 153.88 89.6399 155.128 81.877 157.305C77.9063 158.436 71.9775 159.998 69.9922 164.038C69.5025 165.087 69.2341 166.223 69.2035 167.378V167.567C67.4086 173.546 69.5027 178.555 71.5696 183.861C72.0591 186.096 72.603 188.332 73.1198 190.567C72.1951 190.567 72.0591 191.968 73.1198 191.995H73.4189C73.5312 192.121 73.6693 192.222 73.8241 192.291C73.9788 192.36 74.1466 192.396 74.3164 192.396C74.4862 192.396 74.654 192.36 74.8088 192.291C74.9635 192.222 75.1016 192.121 75.2139 191.995C81.6322 191.995 87.9962 190.81 94.4417 190.648C104.124 190.379 112.337 195.28 120.795 199.32C135.97 206.485 150.303 214.861 165.669 221.217C172.525 224.057 179.578 226.407 186.773 228.246C193.948 229.774 201.216 230.836 208.53 231.424C216.308 232.421 224.005 234.118 231.756 235.168C240.437 236.187 249.19 236.466 257.919 236.003C292.586 235.398 327.147 232.02 361.265 225.903C392.269 220.139 423.272 211.467 450.278 194.903C460.957 188.474 470.001 179.702 476.713 169.263C479.814 164.442 482.452 159.244 485.334 154.289C487.456 150.599 490.012 146.209 489.631 141.927C489.006 132.608 478.644 139.556 474.837 142.169Z"
        fill="#C66720" />
    <path opacity="0.4" fill-rule="evenodd" clip-rule="evenodd"
        d="M266.299 285.425C131.677 304.278 91.3724 250.601 92.5962 252.19C125.449 295.282 180.631 304.709 271.358 302.904C368.34 300.992 407.747 289.653 435.243 265.629C449.167 253.429 464.588 208.424 467.661 199.671C400.296 254.56 381.068 269.265 266.299 285.425Z"
        fill="#C66720" />
    <path fill-rule="evenodd" clip-rule="evenodd"
        d="M511.886 92.963C510.336 83.5096 495.568 82.1899 488.279 79.4966C481.834 77.1265 477.401 71.4168 472.152 67.1344C466.488 62.4973 460.188 58.6797 453.441 55.7957C438.075 49.2241 422.682 43.9722 408.676 34.6804C395.785 26.0888 379.956 24.9846 365.162 22.5876C356.016 21.1735 347.064 18.7246 338.482 15.2888C330.858 11.7407 322.806 9.17904 314.522 7.66678C305.982 6.5356 297.198 8.47476 288.658 8.82489C279.194 9.20195 270.491 6.1316 261.598 3.43832C254.338 0.834548 246.628 -0.309955 238.916 0.0717198C231.736 0.664242 225.318 4.43484 219.28 8.15157C219.129 8.23491 219.002 8.35556 218.911 8.50183C218.821 8.6481 218.77 8.81504 218.764 8.98648C211.937 12.5147 205.383 16.4469 198.53 20.002C192.811 23.1257 186.677 25.4376 180.308 26.8699C172.503 28.4858 165.16 27.1931 157.409 26.1966C143.811 24.4459 130.947 24.1227 118.056 29.0514C102.717 34.9228 90.5058 46.881 75.303 53.291C62.2216 58.6775 50.8263 65.0606 42.6674 76.9919C39.2715 81.9993 36.9568 87.6476 35.8683 93.5825C34.8621 99.9655 36.4123 105.756 37.7721 112.005C39.5671 120.084 37.9625 126.548 35.6236 134.332C33.6305 139.464 33.7773 145.17 36.0315 150.195C38.1528 154.289 42.6674 156.928 46.6109 159.029C50.5544 161.13 60.617 163.392 61.4601 168.294C65.05 189.086 88.6564 179.337 102.554 184.454C109.38 187.012 115.69 190.891 122.625 193.396C130.593 196.277 138.942 198.432 147.101 200.614C163.419 204.977 179.139 210.794 194.994 216.773C201.984 219.466 208.592 222.806 216.071 224.153C223.55 225.499 231.274 224.287 238.671 223.641C254.037 222.267 302.637 226.334 309.083 223.075C317.432 219.009 325.183 219.386 334.212 220.14C341.256 220.732 347.348 215.561 354.419 214.996C362.547 214.203 370.563 212.532 378.325 210.013C385.247 207.364 392.3 205.063 399.456 203.118C407.615 201.314 414.74 195.469 422.981 194.365C439 192.184 450.748 183.296 463.15 172.98C474.409 163.635 501.034 131.423 503.346 125.04C505.658 118.657 507.371 111.574 509.248 104.975C510.281 101.285 512.538 96.8952 511.886 92.963Z"
        fill="#F0A508" />
    <g opacity="0.5">
        <path opacity="0.5" fill-rule="evenodd" clip-rule="evenodd"
            d="M260.61 45.4814C258.353 48.4171 255.634 49.225 255.878 67.4855C256.123 85.746 257.891 92.6408 250.793 106.484C243.694 120.328 229.933 133.767 225.065 148.499C220.197 163.232 214.05 187.417 220.278 196.817C226.506 206.216 249.188 210.849 280.11 211.684C311.032 212.519 344.946 207.509 364.011 201.638C383.076 195.767 394.09 193.343 398.414 188.171C402.738 183 381.172 138.831 366.078 121.594C350.984 104.357 343.75 98.6468 326.725 84.3724C309.7 70.098 302.248 64.4152 293.844 52.8879C285.441 41.3607 283.265 40.7412 274.426 40.8759C269.434 40.8617 264.578 42.4808 260.61 45.4814V45.4814Z"
            fill="#E2CAB3" />
        <path opacity="0.5" fill-rule="evenodd" clip-rule="evenodd"
            d="M88.8389 161.534C100.832 134.143 116.661 121.673 121.094 115.478C133.305 98.43 140.539 90.9696 156.721 88.5456C172.903 86.1217 164.037 86.2025 182.421 83.6438C200.806 81.0852 216.226 77.1261 228.655 67.4841C241.084 57.8422 247.502 50.3279 254.111 47.9848C260.72 45.6416 270.918 40.4167 263.684 47.7963C256.45 55.1758 266.105 57.9769 252.506 77.9879C238.908 97.999 232.435 108.341 227.595 123.774C222.754 139.206 217.749 187.362 206.681 191.16C195.612 194.957 169.204 195.63 144.673 186.608C125.638 179.208 107.001 170.839 88.8389 161.534V161.534Z"
            fill="#E2CAB3" />
        <path opacity="0.5" fill-rule="evenodd" clip-rule="evenodd"
            d="M420.363 173.842C420.363 173.842 443.099 166.812 456.154 155.581C469.208 144.35 482.262 133.873 486.396 118.441C490.53 103.008 495.208 99.157 490.149 94.5784C485.091 89.9998 458.03 65.6795 435.756 53.6944C413.483 41.7093 385.171 34.1412 359.987 28.8893C334.804 23.6374 321.45 26.7077 308.314 26.196C295.179 25.6843 274.373 40.6858 274.673 40.8474C281.945 47.7739 290.036 53.8056 298.769 58.8116C310.572 64.9523 338.094 75.3484 351.529 83.0512C364.964 90.7539 375.625 107.775 378.726 115.748C381.826 123.72 386.178 126.198 390.611 141.468C395.044 156.739 407.336 181.329 407.336 181.329L420.363 173.842Z"
            fill="#E2CAB3" />
        <path opacity="0.5" fill-rule="evenodd" clip-rule="evenodd"
            d="M51.8014 81.0589C51.8014 81.0589 41.3036 108.988 46.7428 122.428C50.515 131.243 55.6535 139.421 61.9728 146.667C61.9728 146.667 75.5709 159.541 84.8449 146.209C94.1188 132.878 114.217 101.743 130.181 89.7313C146.145 77.7193 166.026 75.1337 180.766 73.3831C195.507 71.6324 230.128 65.7341 239.701 58.0044C249.274 50.2747 274.675 40.8482 274.675 40.8482C263.686 35.8519 252.238 31.9107 240.489 29.0786C222.703 25.0387 194.256 35.8387 171.166 30.4522C148.076 25.0656 125.558 37.2123 99.9932 50.14C83.0171 58.9801 66.8869 69.3289 51.8014 81.0589V81.0589Z"
            fill="#E2CAB3" />
        <path opacity="0.5" fill-rule="evenodd" clip-rule="evenodd"
            d="M204.099 23.8805C204.099 23.8805 228.004 1.55321 244.24 1.9572C264.774 2.49586 271.437 6.9667 281.255 10.037C292.432 13.4844 296.892 14.858 294.01 19.3019C291.127 23.7459 277.529 43.5415 277.529 43.5415C277.529 43.5415 244.893 27.678 232.927 25.8466C223.382 24.4676 213.744 23.8103 204.099 23.8805V23.8805Z"
            fill="#E2CAB3" />
    </g>
    <path opacity="0.4" fill-rule="evenodd" clip-rule="evenodd"
        d="M439.212 48.6049C432.767 45.9116 426.294 43.6762 419.957 40.6866C412.536 36.9132 404.91 33.5504 397.113 30.6138C390.078 28.4763 382.858 26.9886 375.546 26.1698C359.01 23.4766 343.835 16.7164 327.979 11.8685C318.889 9.09877 309.389 7.87841 299.886 8.25952C291.618 8.79817 283.323 8.79817 275.055 8.25952C266.897 7.39767 259.717 3.65401 251.775 1.58018C242.121 -0.951506 234.098 1.58018 225.531 6.13183C212.885 12.6226 200.266 20.5409 186.559 24.6885C179.238 27.053 171.577 28.2175 163.877 28.1359C155.718 27.8666 147.94 26.2506 139.917 25.712C131.078 24.7775 122.155 26.3858 114.216 30.3444C108.191 33.507 102.513 37.2798 97.273 41.6024C97.2458 42.0778 97.2458 42.5544 97.273 43.0298C95.6915 47.6054 95.1256 52.4652 95.6141 57.2773C95.8533 62.1875 97.1519 66.9901 99.4224 71.3617C101.693 75.7333 104.883 79.5725 108.777 82.621C114.434 87.3612 120.363 90.9972 125.095 96.68C129.827 102.363 133.254 108.288 138.693 112.84C147.559 120.327 159.335 120.92 170.486 120.92C176.36 120.92 182.207 120.623 188.054 120.92C196.08 121.756 203.971 123.565 211.552 126.306C227.217 131.154 242.583 137.86 258.765 141.011C274.947 144.163 290.992 140.365 306.712 136.19C322.431 132.016 337.933 129.215 353.326 125.175C367.243 121.787 380.453 116.007 392.353 108.1C405.054 98.9626 416.539 88.2757 426.539 76.2918C430.374 71.8749 434.018 67.2963 437.798 62.8254C441.16 59.4563 443.408 55.1542 444.244 50.4902C442.536 49.9459 440.856 49.3167 439.212 48.6049V48.6049Z"
        fill="#E2CAB3" />
    <path fill-rule="evenodd" clip-rule="evenodd"
        d="M222.215 67.1073C220.964 67.3766 219.713 67.5921 218.543 67.7537H218.163C209.623 69.3966 201.165 71.4435 192.38 70.7702C186.452 70.3392 163.28 70.9587 168.72 81.5433C168.784 81.7264 168.784 81.9257 168.72 82.1089C173.506 85.1253 184.14 83.8864 187.757 83.6171C190.824 83.4096 193.87 82.9684 196.868 82.2974C205.398 78.9473 213.51 74.6366 221.045 69.4505C221.532 68.7208 221.925 67.9336 222.215 67.1073Z"
        fill="#C66720" />
    <path fill-rule="evenodd" clip-rule="evenodd"
        d="M255.938 88.8141C256.5 83.1749 256.299 77.4867 255.34 71.9003C251.706 80.4472 247.05 88.5311 241.469 95.9782C238.206 100.045 233.882 103.573 231.244 108.098C229.829 110.522 227.871 114.131 228.905 117.094C230.537 121.753 233.419 121.726 236.493 121.107C241.769 117.875 246.61 110.333 249.22 106.455C251.636 102.862 253.599 98.9915 255.068 94.9278C255.367 92.9079 255.639 90.8879 255.938 88.8141Z"
        fill="#C66720" />
    <path fill-rule="evenodd" clip-rule="evenodd"
        d="M342.881 72.6564C336.504 70.0845 329.995 67.846 323.381 65.9501C319.343 64.9102 315.396 63.5502 311.578 61.8833C308.647 60.1408 305.335 59.1245 301.923 58.9207C301.717 58.9072 301.511 58.9468 301.325 59.0357C301.139 59.1246 300.979 59.2597 300.861 59.4278C300.744 59.5959 300.672 59.7914 300.653 59.9951C300.634 60.1989 300.669 60.404 300.754 60.5905C301.024 61.4475 301.556 62.2004 302.277 62.7451C306.333 68.3619 310.824 73.6568 315.712 78.5816C320.09 83.4834 323.871 88.7622 328.766 93.3139C335.402 99.6431 347.396 103.494 354.195 94.7683C361.701 85.0455 351.475 76.2385 342.881 72.6564Z"
        fill="#C66720" />
    <path fill-rule="evenodd" clip-rule="evenodd"
        d="M315.47 24.9315C313.158 20.0028 305.652 20.1375 300.675 21.2956C300.271 21.3478 299.871 21.4289 299.479 21.538C292.591 25.047 287.247 30.9426 284.466 38.1017V38.1017C292.625 35.7047 298.636 30.0219 307.257 29.0253C308.644 28.8637 317.048 28.2443 315.47 24.9315Z"
        fill="#C66720" />
    <path fill-rule="evenodd" clip-rule="evenodd"
        d="M200.376 33.872C201.468 34.2168 202.602 34.4161 203.748 34.4645C206.442 34.0079 209.176 33.8274 211.907 33.9258C212.967 33.873 214.029 33.873 215.089 33.9258C218.65 34.0672 222.2 34.4089 225.722 34.9493L227.109 35.3263C229.046 35.5294 230.989 35.0003 232.549 33.845C224.58 30.3707 202.633 22.1292 199.641 32.7677C199.6 33.0096 199.653 33.2581 199.789 33.463C199.925 33.6679 200.135 33.8141 200.376 33.872V33.872Z"
        fill="#C66720" />
    <path fill-rule="evenodd" clip-rule="evenodd"
        d="M51.2071 150.439C50.5701 151.84 50.1133 153.315 49.8472 154.829C49.4402 155.955 49.202 157.135 49.1401 158.33C49.153 158.405 49.1835 158.476 49.2294 158.538C49.2752 158.599 49.335 158.649 49.4039 158.683C49.4728 158.717 49.5489 158.734 49.6259 158.734C49.7029 158.734 49.7788 158.715 49.8472 158.68C50.6631 158.222 50.6903 156.849 50.8263 155.987C51.0729 154.157 51.4917 152.353 52.0773 150.6C52.2949 150.196 51.4518 149.927 51.2071 150.439Z"
        fill="#C66720" />
    <path fill-rule="evenodd" clip-rule="evenodd"
        d="M56.3185 154.612C55.624 155.945 55.1206 157.369 54.8227 158.84C54.6051 159.621 53.9796 160.86 54.2243 161.533C54.2398 161.621 54.282 161.701 54.3453 161.764C54.4085 161.826 54.4898 161.868 54.5779 161.883C55.6114 161.883 55.7201 160.537 55.8833 159.81C56.2641 158.221 56.5904 156.578 57.1344 155.016C57.3247 154.558 56.5904 154.127 56.3185 154.612Z"
        fill="#C66720" />
    <path fill-rule="evenodd" clip-rule="evenodd"
        d="M80.9088 172.98C80.664 175.673 79.7937 178.367 79.8209 181.221C79.8209 182.029 81.0992 182.164 81.1264 181.221C81.5374 178.445 81.8007 175.649 81.9151 172.845C81.8879 172.307 80.9632 172.441 80.9088 172.98Z"
        fill="#C66720" />
    <path fill-rule="evenodd" clip-rule="evenodd"
        d="M87.6446 174.382C86.7554 176.505 86.3291 178.79 86.3936 181.088C86.3936 181.95 87.7806 182.112 87.8078 181.088C87.888 178.865 88.1335 176.65 88.5421 174.463C88.6509 174.032 87.835 173.897 87.6446 174.382Z"
        fill="#C66720" />
    <path fill-rule="evenodd" clip-rule="evenodd"
        d="M197.554 211.144C197.144 212.158 196.852 213.215 196.683 214.295C196.427 215.261 196.317 216.26 196.357 217.258C196.393 217.365 196.462 217.459 196.555 217.526C196.648 217.592 196.759 217.628 196.874 217.628C196.988 217.628 197.1 217.592 197.193 217.526C197.286 217.459 197.355 217.365 197.391 217.258C197.621 216.378 197.739 215.473 197.744 214.564C197.907 213.433 197.962 212.302 198.179 211.171C198.234 210.928 197.69 210.848 197.554 211.144Z"
        fill="#C66720" />
    <path fill-rule="evenodd" clip-rule="evenodd"
        d="M205.276 212.086C204.85 213.446 204.559 214.844 204.405 216.26C204.1 217.447 204.008 218.678 204.133 219.896C204.176 220.001 204.249 220.091 204.343 220.155C204.438 220.218 204.549 220.252 204.664 220.252C204.778 220.252 204.889 220.218 204.984 220.155C205.078 220.091 205.152 220.001 205.194 219.896C205.484 218.835 205.613 217.737 205.575 216.638C205.575 215.129 205.819 213.621 205.955 212.14C205.941 212.064 205.902 211.996 205.844 211.944C205.787 211.893 205.714 211.862 205.636 211.856C205.559 211.85 205.482 211.869 205.417 211.91C205.351 211.952 205.302 212.014 205.276 212.086V212.086Z"
        fill="#C66720" />
    <path fill-rule="evenodd" clip-rule="evenodd"
        d="M235.982 216.693C235.982 216.262 235.465 215.885 235.247 216.289C234.547 217.62 234.175 219.097 234.16 220.598C234.16 221.352 233.969 223.291 234.921 223.48C234.982 223.501 235.046 223.51 235.11 223.507C235.175 223.504 235.238 223.488 235.296 223.46C235.354 223.433 235.406 223.394 235.449 223.347C235.492 223.299 235.525 223.244 235.547 223.184C235.591 222.344 235.527 221.502 235.356 220.679C235.345 219.325 235.556 217.979 235.982 216.693V216.693Z"
        fill="#C66720" />
    <path fill-rule="evenodd" clip-rule="evenodd"
        d="M243.621 216.423C243.602 216.363 243.564 216.31 243.512 216.273C243.461 216.235 243.399 216.215 243.335 216.215C243.271 216.215 243.209 216.235 243.158 216.273C243.106 216.31 243.068 216.363 243.049 216.423C242.448 218.725 242.21 221.105 242.342 223.479C242.342 224.207 243.512 224.287 243.485 223.479C243.357 221.127 243.402 218.769 243.621 216.423V216.423Z"
        fill="#C66720" />
    <path fill-rule="evenodd" clip-rule="evenodd"
        d="M251.999 217.257C251.999 217.165 251.962 217.075 251.896 217.01C251.829 216.944 251.74 216.907 251.646 216.907C251.552 216.907 251.462 216.944 251.396 217.01C251.329 217.075 251.292 217.165 251.292 217.257C251.183 218.335 251.102 219.412 251.047 220.489C251.047 221.27 250.503 222.294 251.047 222.967C251.09 223 251.143 223.018 251.197 223.018C251.251 223.018 251.304 223 251.347 222.967C252.271 222.967 252.217 221.486 252.271 220.786C252.321 219.603 252.229 218.419 251.999 217.257V217.257Z"
        fill="#C66720" />
    <path fill-rule="evenodd" clip-rule="evenodd"
        d="M400.978 200.426C400.978 200.587 400.978 200.156 400.978 200.102C400.813 199.717 400.677 199.321 400.57 198.917C400.298 197.867 400.243 196.736 399.917 195.685C399.917 195.389 399.319 195.228 399.237 195.685C399.156 196.143 399.237 202.069 400.923 201.072C400.983 201.043 401.034 201 401.071 200.946C401.108 200.892 401.131 200.829 401.136 200.764C401.142 200.699 401.13 200.633 401.102 200.574C401.074 200.515 401.031 200.464 400.978 200.426V200.426Z"
        fill="#C66720" />
    <path fill-rule="evenodd" clip-rule="evenodd"
        d="M410.663 198.001C410.124 196.351 409.47 194.74 408.705 193.18C408.669 193.069 408.59 192.977 408.486 192.924C408.381 192.871 408.26 192.861 408.148 192.897C408.036 192.933 407.943 193.011 407.89 193.114C407.836 193.218 407.826 193.338 407.862 193.449C408.268 195.189 408.795 196.899 409.44 198.566C409.739 199.374 410.99 198.809 410.663 198.001Z"
        fill="#C66720" />
    <path fill-rule="evenodd" clip-rule="evenodd"
        d="M419.958 193.233C419.012 191.885 418.372 190.351 418.081 188.736C418.056 188.636 417.999 188.548 417.917 188.485C417.836 188.422 417.736 188.388 417.632 188.388C417.529 188.388 417.429 188.422 417.348 188.485C417.266 188.548 417.209 188.636 417.184 188.736C417.059 190.667 417.638 192.578 418.815 194.122C419.332 194.984 420.502 194.014 419.958 193.233Z"
        fill="#C66720" />
    <path fill-rule="evenodd" clip-rule="evenodd"
        d="M431.544 191.915C430.63 191.155 429.882 190.219 429.344 189.163C428.806 188.107 428.491 186.955 428.417 185.775C428.423 185.71 428.409 185.645 428.377 185.588C428.345 185.531 428.297 185.485 428.238 185.456C428.179 185.427 428.113 185.416 428.048 185.425C427.983 185.434 427.922 185.462 427.873 185.505C425.48 187.175 429.07 191.484 430.402 192.75C431.082 193.504 432.224 192.589 431.544 191.915Z"
        fill="#C66720" />
    <path fill-rule="evenodd" clip-rule="evenodd"
        d="M444.652 185.773C443.214 183.361 441.625 181.04 439.893 178.824C439.703 178.501 439.077 178.609 439.213 179.04C440.056 181.733 442.449 183.645 443.619 186.258C443.918 186.985 444.951 186.5 444.652 185.773Z"
        fill="#C66720" />
    <path fill-rule="evenodd" clip-rule="evenodd"
        d="M455.474 177.453C455.229 176.941 454.577 176.645 454.142 176.321L451.993 174.759C451.449 174.355 450.878 173.978 450.307 173.601C449.736 173.224 449.709 173.44 449.464 173.305C449.219 173.17 449.246 173.305 449.328 173.305C449.41 173.305 449.464 173.736 449.654 173.924C450.135 174.419 450.644 174.886 451.177 175.325C451.857 175.917 452.564 176.456 453.271 176.995C453.978 177.533 454.359 177.991 454.985 177.991C455.054 177.992 455.122 177.978 455.186 177.95C455.249 177.922 455.305 177.882 455.352 177.831C455.398 177.78 455.433 177.72 455.454 177.655C455.475 177.59 455.482 177.521 455.474 177.453V177.453Z"
        fill="#C66720" />
    <path fill-rule="evenodd" clip-rule="evenodd"
        d="M464.698 170.719C464.647 170.562 464.555 170.422 464.43 170.313C464.306 170.204 464.154 170.13 463.991 170.099C463.484 169.867 463.016 169.558 462.604 169.184C461.645 168.352 460.819 167.38 460.156 166.302C459.857 165.844 459.15 166.302 459.368 166.814C459.948 168.102 460.79 169.257 461.842 170.207C462.495 170.8 463.719 171.796 464.562 171.231C464.635 171.17 464.688 171.088 464.712 170.996C464.737 170.904 464.732 170.808 464.698 170.719Z"
        fill="#C66720" />
    <path fill-rule="evenodd" clip-rule="evenodd"
        d="M495.404 136.082C495.279 135.936 495.125 135.818 494.952 135.735C494.779 135.651 494.59 135.604 494.397 135.597C493.793 135.494 493.219 135.264 492.711 134.924C491.629 134.183 490.818 133.116 490.399 131.881C490.399 131.477 489.692 131.719 489.72 132.096C489.888 133.55 490.619 134.882 491.759 135.813C492.548 136.459 494.479 137.51 495.376 136.567C495.438 136.502 495.474 136.418 495.479 136.329C495.484 136.241 495.457 136.153 495.404 136.082V136.082Z"
        fill="#C66720" />
    <path fill-rule="evenodd" clip-rule="evenodd"
        d="M501.415 129.213C499.118 128.036 497.183 126.268 495.813 124.096C495.568 123.692 494.861 124.096 495.105 124.446C496.357 126.932 498.403 128.94 500.925 130.156C501.469 130.371 501.959 129.455 501.415 129.213Z"
        fill="#C66720" />
    <path fill-rule="evenodd" clip-rule="evenodd"
        d="M505.138 119.708C504.095 119.035 503.096 118.297 502.147 117.499C501.222 116.664 500.352 115.83 499.427 115.075C499.073 114.806 498.611 115.318 498.91 115.668C500.327 117.848 502.296 119.622 504.621 120.812C504.763 120.847 504.912 120.832 505.043 120.77C505.174 120.708 505.28 120.603 505.341 120.472C505.402 120.341 505.416 120.193 505.378 120.054C505.341 119.914 505.256 119.792 505.138 119.708Z"
        fill="#C66720" />
    <path fill-rule="evenodd" clip-rule="evenodd"
        d="M44.4645 143.327C42.1099 146.522 40.5196 150.206 39.814 154.1C39.814 154.423 40.2763 154.45 40.3579 154.1C41.2914 150.402 42.9552 146.923 45.2532 143.865C45.5796 143.354 44.7909 142.815 44.4645 143.327Z"
        fill="#C66720" />
    <path fill-rule="evenodd" clip-rule="evenodd"
        d="M40.221 140.662C39.6227 140.931 39.3779 141.443 38.97 141.982C38.562 142.521 37.8549 143.544 37.3654 144.379C36.6716 145.336 36.3005 146.486 36.3047 147.665C36.3047 148.069 36.9302 147.988 36.9574 147.665C37.2736 146.445 37.8484 145.307 38.6436 144.325C39.2963 143.328 40.5746 142.197 40.7105 141.012C40.7153 140.952 40.7044 140.892 40.6789 140.838C40.6534 140.783 40.6142 140.736 40.5651 140.701C40.5159 140.666 40.4584 140.644 40.3982 140.637C40.3379 140.63 40.2769 140.639 40.221 140.662V140.662Z"
        fill="#C66720" />
    <path fill-rule="evenodd" clip-rule="evenodd"
        d="M48.0742 149.413C47.3091 150.631 46.6885 151.933 46.2249 153.292C45.6197 154.56 45.181 155.899 44.9194 157.278C44.9194 157.628 45.4362 157.736 45.5178 157.278C45.8664 155.95 46.3683 154.667 47.0136 153.453C47.8078 152.229 48.3614 150.868 48.6453 149.44C48.6489 149.365 48.6223 149.292 48.5713 149.236C48.5203 149.181 48.4491 149.148 48.3734 149.144C48.2976 149.141 48.2236 149.167 48.1675 149.217C48.1114 149.268 48.0778 149.338 48.0742 149.413V149.413Z"
        fill="#C66720" />
    <path fill-rule="evenodd" clip-rule="evenodd"
        d="M62.8184 158.84C60.7786 159.46 59.8268 162.126 59.2828 163.984C59.2623 164.08 59.2775 164.18 59.3257 164.265C59.3738 164.351 59.4516 164.416 59.5447 164.449C59.6377 164.482 59.7396 164.48 59.8315 164.444C59.9234 164.408 59.999 164.34 60.0443 164.254C60.3703 163.312 60.7989 162.409 61.3226 161.56C61.8393 160.752 62.5736 160.079 63.1175 159.271C63.2263 159.109 63.0631 158.84 62.8184 158.84Z"
        fill="#C66720" />
    <path fill-rule="evenodd" clip-rule="evenodd"
        d="M67.334 166.92C66.2733 167.297 65.7022 168.617 65.2126 169.613C64.6571 170.772 64.4046 172.05 64.4783 173.33C64.4783 173.761 65.1311 173.842 65.1583 173.33C65.2494 172.259 65.5254 171.211 65.9741 170.233C66.4093 169.182 67.4699 168.374 67.7691 167.324C67.7899 167.265 67.7929 167.201 67.7778 167.14C67.7627 167.08 67.7301 167.025 67.6841 166.982C67.638 166.939 67.5804 166.911 67.5183 166.9C67.4562 166.889 67.3921 166.896 67.334 166.92Z"
        fill="#C66720" />
    <path fill-rule="evenodd" clip-rule="evenodd"
        d="M71.7094 169.749C70.8376 171.126 70.1777 172.624 69.7512 174.193C69.1689 175.656 68.7317 177.171 68.4458 178.718C68.4242 178.81 68.4407 178.908 68.4917 178.989C68.5427 179.07 68.624 179.127 68.7178 179.149C68.8115 179.17 68.9101 179.154 68.9917 179.103C69.0733 179.053 69.1313 178.972 69.1529 178.879C69.5577 177.379 70.0759 175.912 70.7031 174.489C71.4709 173.06 72.0208 171.526 72.3349 169.938C72.3474 169.897 72.3517 169.854 72.3475 169.812C72.3433 169.77 72.3308 169.728 72.3106 169.691C72.2904 169.653 72.2629 169.62 72.2298 169.593C72.1966 169.566 72.1584 169.546 72.1173 169.534C72.0763 169.521 72.0331 169.517 71.9904 169.521C71.9477 169.525 71.9062 169.538 71.8683 169.558C71.8304 169.578 71.7969 169.605 71.7696 169.638C71.7423 169.671 71.7219 169.708 71.7094 169.749V169.749Z"
        fill="#C66720" />
    <path fill-rule="evenodd" clip-rule="evenodd"
        d="M75.7057 174.084C74.7576 176.188 74.3646 178.496 74.5635 180.791C74.5635 181.248 75.2706 181.302 75.2706 180.791C75.2706 178.555 76.2768 176.347 76.1409 174.138C76.1258 174.096 76.0991 174.058 76.0636 174.03C76.0281 174.001 75.9854 173.983 75.9402 173.978C75.8949 173.972 75.849 173.979 75.8076 173.998C75.7662 174.017 75.7309 174.047 75.7057 174.084V174.084Z"
        fill="#C66720" />
    <path fill-rule="evenodd" clip-rule="evenodd"
        d="M213.185 214.162C212.223 216.657 211.859 219.34 212.124 221.999C212.124 222.349 212.749 222.322 212.777 221.999C212.777 220.706 212.967 219.306 213.13 218.148C213.444 216.869 213.6 215.558 213.593 214.242C213.593 213.973 213.266 214 213.185 214.162Z"
        fill="#C66720" />
    <path fill-rule="evenodd" clip-rule="evenodd"
        d="M220.281 219.332C220.281 218.093 220.879 216.989 220.988 215.75C220.972 215.709 220.944 215.673 220.908 215.648C220.872 215.623 220.828 215.609 220.784 215.609C220.739 215.609 220.696 215.623 220.66 215.648C220.623 215.673 220.595 215.709 220.58 215.75C219.79 217.011 219.329 218.446 219.239 219.927C219.148 221.408 219.432 222.888 220.063 224.234C220.253 224.638 220.797 224.234 220.661 223.964C220.176 222.47 220.045 220.884 220.281 219.332V219.332Z"
        fill="#C66720" />
    <path fill-rule="evenodd" clip-rule="evenodd"
        d="M226.808 220.247C226.893 219.017 226.783 217.781 226.482 216.585C226.452 216.528 226.407 216.481 226.352 216.448C226.297 216.415 226.234 216.398 226.169 216.398C226.105 216.398 226.042 216.415 225.987 216.448C225.932 216.481 225.887 216.528 225.857 216.585C225.625 217.804 225.625 219.055 225.857 220.274C225.935 221.681 226.182 223.073 226.591 224.422C226.591 224.88 227.434 224.772 227.325 224.422C227.038 223.047 226.865 221.651 226.808 220.247V220.247Z"
        fill="#C66720" />
    <path fill-rule="evenodd" clip-rule="evenodd"
        d="M471.551 158.841C471.551 158.545 471.143 158.384 471.007 158.626C470.782 158.976 470.663 159.383 470.663 159.798C470.663 160.213 470.782 160.619 471.007 160.969C471.442 161.804 472.503 163.043 473.537 162.908C473.619 162.889 473.69 162.839 473.736 162.769C473.781 162.698 473.798 162.613 473.781 162.531C473.509 161.077 471.198 160.484 471.551 158.841Z"
        fill="#C66720" />
    <path fill-rule="evenodd" clip-rule="evenodd"
        d="M481.368 154.504C481.096 154.073 480.851 154.019 480.361 153.858C479.693 153.65 479.098 153.258 478.648 152.727C477.778 151.71 477.172 150.499 476.88 149.198C476.869 149.145 476.848 149.095 476.818 149.05C476.787 149.005 476.748 148.966 476.703 148.936C476.657 148.906 476.607 148.886 476.553 148.875C476.499 148.865 476.444 148.865 476.391 148.875C476.337 148.886 476.286 148.907 476.241 148.937C476.195 148.967 476.156 149.006 476.126 149.051C476.096 149.096 476.075 149.146 476.064 149.199C476.053 149.252 476.054 149.307 476.064 149.36C476.31 150.846 476.916 152.251 477.832 153.454C478.512 154.289 480.307 155.662 481.395 154.908C481.433 154.846 481.451 154.774 481.446 154.702C481.441 154.629 481.414 154.56 481.368 154.504V154.504Z"
        fill="#C66720" />
    <path fill-rule="evenodd" clip-rule="evenodd"
        d="M485.995 145.374C485.152 144.539 484.254 143.704 483.465 142.815C483.139 142.438 482.459 142.815 482.704 143.273C483.32 144.357 484.069 145.361 484.934 146.263C485.668 147.017 486.484 148.229 487.654 148.31C487.711 148.314 487.768 148.306 487.822 148.286C487.875 148.265 487.923 148.233 487.963 148.192C488.002 148.15 488.031 148.101 488.048 148.046C488.065 147.992 488.07 147.935 488.062 147.879C487.898 146.828 486.811 146.128 485.995 145.374Z"
        fill="#C66720" />
    <path opacity="0.4" fill-rule="evenodd" clip-rule="evenodd"
        d="M287.237 51.6218C287.237 59.0283 275.788 65.0882 261.618 65.0882C247.449 65.0882 236 59.0822 236 51.6218C236 44.1614 247.449 38.1554 261.618 38.1554C275.788 38.1554 287.237 44.2153 287.237 51.6218Z"
        fill="#DA840D" />
    <path fill-rule="evenodd" clip-rule="evenodd"
        d="M427.518 164.226C369.753 149.709 345.575 181.57 346.527 219.061C346.908 233.712 360.397 253.912 369.263 269.183C377.128 281.384 386.301 292.708 396.623 302.957C403.15 307.562 411.853 312.868 420.583 312.868C423.93 312.541 427.129 311.343 429.857 309.394C431.135 309.641 432.371 310.067 433.528 310.659C437.662 312.06 439.484 306.35 443.999 308.37C451.206 311.629 457.434 305.004 462.818 301.395C464.559 300.236 481.856 273.681 483.732 272.28C501.546 249.63 510.521 242.95 510.711 215.452C510.929 181.086 493.496 150.301 427.518 164.226Z"
        fill="#C73A54" />
    <g style="mix-blend-mode:multiply">
        <path fill-rule="evenodd" clip-rule="evenodd"
            d="M449.414 173.223C449.414 177.155 439.243 180.602 426.487 180.926C413.732 181.249 403.316 178.232 403.207 174.381C403.099 170.53 413.379 166.921 426.134 166.678C438.889 166.436 449.305 169.291 449.414 173.223Z"
            fill="#ED6366" />
    </g>
    <path fill-rule="evenodd" clip-rule="evenodd"
        d="M391.137 185.935C386.051 178.313 375.635 180.549 369.19 185.02L368.863 185.262C367.367 186.263 366.013 187.459 364.838 188.817C360.254 193.635 357.347 199.779 356.544 206.351C355.755 214.43 358.502 223.399 365.545 226.981C365.744 227.082 365.906 227.242 366.008 227.439C366.278 227.383 366.542 227.302 366.796 227.197C370.767 225.581 370.577 219.117 370.604 215.831C370.604 208.532 376.723 205.3 382.326 202.176C387.466 199.24 395.597 192.642 391.137 185.935Z"
        fill="#ED6366" />
    <g style="mix-blend-mode:multiply">
        <path fill-rule="evenodd" clip-rule="evenodd"
            d="M483.161 248.149C478.374 242.035 471.194 249.495 467.768 253.266C459.799 262.019 454.822 272.819 445.412 280.414C436.002 288.009 418.923 282.488 411.607 293.531C411.265 294.063 411.033 294.656 410.923 295.278C410.813 295.899 410.828 296.535 410.967 297.151C411.106 297.766 411.366 298.348 411.732 298.864C412.099 299.38 412.565 299.819 413.103 300.156C413.863 300.451 414.658 300.65 415.469 300.749C417.161 301.689 418.999 302.344 420.908 302.688C426.874 303.46 432.933 302.328 438.205 299.456C442.992 297.193 448.404 299.833 453.163 297.597C454.922 296.648 456.439 295.312 457.596 293.692C459.122 291.94 460.403 289.993 461.404 287.902C463.797 283.978 466.527 280.266 469.563 276.805C473.252 272.658 476.59 268.217 479.544 263.527C483.079 258.491 486.288 252.189 483.161 248.149Z"
            fill="#ED6366" />
    </g>
    <path fill-rule="evenodd" clip-rule="evenodd"
        d="M481.642 113.054C478.433 111.977 472.532 116.825 470.03 118.306C464.318 121.699 458.525 125.12 453.032 128.837C444.687 134.633 437.771 142.218 432.798 151.029C430.724 154.781 429.334 158.866 428.691 163.095C427.847 165.316 427.422 167.671 427.44 170.044C427.425 170.21 427.444 170.378 427.494 170.537C427.545 170.696 427.627 170.844 427.736 170.972C427.845 171.099 427.978 171.204 428.128 171.281C428.278 171.357 428.441 171.404 428.61 171.417C442.534 171.579 456.785 162.556 466.521 153.48C471.623 149.026 475.663 143.507 478.352 137.32C479.692 133.831 480.693 130.224 481.343 126.547C482.105 122.615 480.962 117.848 482.241 114.212C482.31 113.98 482.287 113.73 482.176 113.514C482.064 113.299 481.873 113.134 481.642 113.054V113.054Z"
        fill="#8DB54F" />
    <path fill-rule="evenodd" clip-rule="evenodd"
        d="M425.099 170.934C425.099 167.083 426.268 164.686 427.383 152.566C428.498 140.446 428.281 134.386 429.097 132.393C429.913 130.4 436.44 134.628 436.44 134.628C436.44 134.628 434.346 143.92 432.795 151.542C431.245 159.164 429.695 172.873 429.695 172.873C429.695 172.873 428.852 175.109 426.812 174.543C424.772 173.977 425.099 170.934 425.099 170.934Z"
        fill="#300D33" />
</svg>
