<svg width="512" height="632" viewBox="0 0 512 632" fill="none" xmlns="http://www.w3.org/2000/svg">
    <defs>
        <linearGradient id="paint0_linear_1001_2516" x1="77.9306" y1="576.426" x2="-17.4995" y2="571.999" gradientUnits="userSpaceOnUse">
            <stop stop-color="#92A3FD"/>
            <stop offset="1" stop-color="#9DCEFF"/>
        </linearGradient>
        <linearGradient id="paint1_linear_1001_2516" x1="57.6815" y1="541.385" x2="22.2189" y2="534.739" gradientUnits="userSpaceOnUse">
            <stop stop-color="#92A3FD"/>
            <stop offset="1" stop-color="#9DCEFF"/>
        </linearGradient>
        <linearGradient id="paint2_linear_1001_2516" x1="61.4612" y1="527.627" x2="26.102" y2="521.596" gradientUnits="userSpaceOnUse">
            <stop stop-color="#92A3FD"/>
            <stop offset="1" stop-color="#9DCEFF"/>
        </linearGradient>
        <linearGradient id="paint3_linear_1001_2516" x1="476.239" y1="623.879" x2="306.69" y2="602.695" gradientUnits="userSpaceOnUse">
            <stop stop-color="#92A3FD"/>
            <stop offset="1" stop-color="#9DCEFF"/>
        </linearGradient>
        <linearGradient id="paint4_linear_1001_2516" x1="420.637" y1="578.395" x2="387.687" y2="573.454" gradientUnits="userSpaceOnUse">
            <stop stop-color="#92A3FD"/>
            <stop offset="1" stop-color="#9DCEFF"/>
        </linearGradient>
        <linearGradient id="paint5_linear_1001_2516" x1="434.095" y1="586.902" x2="397.647" y2="580.956" gradientUnits="userSpaceOnUse">
            <stop stop-color="#92A3FD"/>
            <stop offset="1" stop-color="#9DCEFF"/>
        </linearGradient>
        <linearGradient id="paint6_linear_1001_2516" x1="448.965" y1="594.325" x2="412.994" y2="588.566" gradientUnits="userSpaceOnUse">
            <stop stop-color="#92A3FD"/>
            <stop offset="1" stop-color="#9DCEFF"/>
        </linearGradient>
        <linearGradient id="paint7_linear_1001_2516" x1="416.964" y1="602.685" x2="-33.1348" y2="564.051" gradientUnits="userSpaceOnUse">
            <stop stop-color="#92A3FD"/>
            <stop offset="1" stop-color="#9DCEFF"/>
        </linearGradient>
        <linearGradient id="paint8_linear_1001_2516" x1="158.46" y1="386.542" x2="133.587" y2="384.64" gradientUnits="userSpaceOnUse">
            <stop stop-color="#92A3FD"/>
            <stop offset="1" stop-color="#9DCEFF"/>
        </linearGradient>
        <clipPath id="clip0_1001_2516">
            <rect width="512" height="631.233" fill="white"/>
        </clipPath>
    </defs>
    <g clip-path="url(#clip0_1001_2516)">
        <g opacity="0.3">
            <path opacity="0.3" d="M128.355 386.138H128.044L116.101 382.667C115.691 382.539 115.346 382.253 115.141 381.869C114.936 381.485 114.887 381.034 115.003 380.613C115.12 380.192 115.393 379.835 115.765 379.617C116.137 379.4 116.578 379.34 116.992 379.45L128.853 382.879C129.229 383.005 129.548 383.265 129.75 383.612C129.953 383.959 130.025 384.37 129.955 384.767C129.884 385.164 129.674 385.522 129.365 385.774C129.056 386.026 128.668 386.156 128.272 386.138H128.355Z" fill="black"/>
            <path opacity="0.3" d="M116.119 395.534C115.781 395.502 115.461 395.365 115.201 395.142C114.941 394.919 114.755 394.62 114.668 394.285C114.602 394.065 114.582 393.834 114.608 393.606C114.633 393.378 114.705 393.158 114.818 392.96C114.931 392.761 115.082 392.588 115.263 392.452C115.444 392.316 115.651 392.219 115.87 392.168L127.814 389.078C128.228 388.987 128.661 389.063 129.022 389.291C129.382 389.519 129.642 389.88 129.747 390.3C129.852 390.719 129.793 391.163 129.583 391.54C129.374 391.916 129.029 392.194 128.623 392.316L116.658 395.407C116.487 395.48 116.305 395.523 116.119 395.534V395.534Z" fill="black"/>
            <path opacity="0.3" d="M122.216 406.795C121.823 406.755 121.456 406.575 121.179 406.287C120.877 405.974 120.707 405.552 120.707 405.112C120.707 404.672 120.877 404.25 121.179 403.937L130.013 395.154C130.163 394.985 130.346 394.849 130.549 394.755C130.753 394.661 130.973 394.61 131.197 394.606C131.421 394.602 131.643 394.645 131.849 394.732C132.056 394.819 132.243 394.948 132.399 395.111C132.555 395.275 132.677 395.469 132.756 395.683C132.836 395.896 132.872 396.124 132.862 396.352C132.852 396.58 132.797 396.803 132.699 397.009C132.601 397.214 132.463 397.397 132.294 397.546L123.502 406.371C123.328 406.529 123.124 406.648 122.902 406.721C122.681 406.794 122.447 406.819 122.216 406.795V406.795Z" fill="black"/>
            <path opacity="0.3" d="M132.936 413.461H132.625C132.414 413.4 132.216 413.297 132.044 413.157C131.872 413.016 131.73 412.842 131.625 412.645C131.521 412.447 131.456 412.23 131.436 412.007C131.415 411.783 131.439 411.558 131.506 411.344L134.782 399.237C134.907 398.819 135.188 398.468 135.564 398.258C135.94 398.049 136.382 397.998 136.794 398.117C137.207 398.236 137.557 398.516 137.77 398.895C137.983 399.275 138.042 399.724 137.934 400.148L134.574 412.254C134.473 412.613 134.256 412.927 133.959 413.146C133.662 413.365 133.302 413.475 132.936 413.461Z" fill="black"/>
        </g>
        <path d="M456.862 225.514L427.149 242.976L362.081 252.585C362.081 252.585 314.576 179.734 307.298 168.283C300.019 156.833 291.497 149.489 271.778 149.51L275.51 207.63C276.132 209.513 315.467 258.977 341.407 285.941C350.573 295.444 356.192 297.878 370.437 293.815C406.994 283.465 451.305 252.796 454.872 245.134C459.662 235.123 456.51 225.726 456.862 225.514Z" fill="#FFEDE5"/>
        <path d="M444.651 188.668C448.549 175.672 464.474 165.089 479.259 169.323C481.6 169.983 483.845 170.958 485.935 172.222C500.45 180.688 512 201.324 512 218.299C512.047 221.166 511.655 224.022 510.839 226.765V226.765C506.961 239.739 491.078 250.407 476.231 246.152C473.893 245.483 471.649 244.508 469.554 243.253C455.164 234.787 443.49 214.129 443.49 197.155C443.448 194.282 443.84 191.419 444.651 188.668Z" fill="#455A64"/>
        <path d="M469.575 243.128C455.185 234.662 443.511 214.004 443.511 197.03C443.511 180.055 455.185 173.198 469.575 181.664C483.966 190.13 495.577 210.766 495.577 227.741C495.577 244.715 483.966 251.594 469.575 243.128Z" fill="#37474F"/>
        <path d="M469.573 200.477C464.036 197.218 459.537 199.863 459.537 206.382C459.725 209.936 460.732 213.394 462.476 216.476C464.22 219.558 466.651 222.176 469.573 224.118C475.109 227.378 479.588 224.732 479.588 218.213C479.403 214.661 478.4 211.204 476.66 208.122C474.92 205.04 472.491 202.42 469.573 200.477V200.477Z" fill="#455A64"/>
        <path d="M466.131 210.277C466.198 211.495 466.544 212.679 467.142 213.734C467.74 214.789 468.573 215.686 469.573 216.352C469.902 216.593 470.284 216.749 470.685 216.804C471.087 216.86 471.495 216.813 471.875 216.669L472.124 216.521C472.42 216.262 472.653 215.935 472.804 215.568C472.956 215.201 473.021 214.802 472.995 214.405C472.929 213.19 472.585 212.007 471.991 210.953C471.397 209.898 470.569 209 469.573 208.33C469.245 208.089 468.863 207.933 468.461 207.878C468.06 207.822 467.651 207.869 467.272 208.013L467.023 208.161C466.721 208.417 466.483 208.742 466.328 209.11C466.173 209.478 466.106 209.878 466.131 210.277V210.277Z" fill="#37474F"/>
        <path d="M411.081 242.724C411.146 243.939 411.489 245.122 412.083 246.177C412.677 247.232 413.506 248.13 414.503 248.798C414.949 249.092 415.465 249.253 415.996 249.264C416.399 249.256 416.792 249.139 417.136 248.925L471.878 216.669L472.127 216.521C472.423 216.262 472.656 215.936 472.807 215.568C472.959 215.201 473.024 214.802 472.998 214.405C472.932 213.19 472.588 212.007 471.994 210.953C471.4 209.898 470.572 209 469.576 208.33C469.248 208.089 468.866 207.933 468.464 207.878C468.063 207.822 467.654 207.869 467.275 208.013L467.026 208.161L412.284 240.417C411.891 240.647 411.57 240.985 411.357 241.393C411.144 241.801 411.049 242.263 411.081 242.724V242.724Z" fill="#FAFAFA"/>
        <path d="M357.355 240.121C361.232 227.146 377.116 216.416 391.962 220.67C394.306 221.343 396.557 222.318 398.66 223.57C413.05 232.036 424.724 252.693 424.724 269.668C424.76 272.533 424.368 275.388 423.563 278.134C419.665 291.108 403.802 301.775 388.956 297.542C386.619 296.869 384.375 295.894 382.279 294.643C367.889 286.176 356.214 265.519 356.214 248.566C356.166 245.708 356.551 242.859 357.355 240.121V240.121Z" fill="#455A64"/>
        <path d="M382.258 294.559C367.868 286.092 356.194 265.435 356.194 248.482C356.194 231.528 367.868 224.628 382.258 233.095C396.649 241.561 408.323 262.218 408.323 279.193C408.323 296.167 396.669 303.046 382.258 294.559Z" fill="#37474F"/>
        <path d="M382.257 251.869C376.721 248.589 372.242 251.234 372.242 257.774C372.429 261.323 373.434 264.776 375.174 267.854C376.914 270.932 379.341 273.548 382.257 275.49C387.793 278.749 392.293 276.103 392.293 269.585C392.101 266.034 391.093 262.58 389.349 259.503C387.606 256.425 385.176 253.81 382.257 251.869V251.869Z" fill="#455A64"/>
        <path d="M378.838 261.71C378.902 262.925 379.245 264.108 379.84 265.163C380.434 266.218 381.263 267.116 382.26 267.784C382.588 268.026 382.97 268.181 383.372 268.237C383.773 268.292 384.182 268.246 384.561 268.102C384.653 268.07 384.738 268.019 384.81 267.954C385.11 267.696 385.347 267.371 385.502 267.003C385.657 266.636 385.725 266.236 385.702 265.837C385.634 264.62 385.287 263.437 384.689 262.382C384.091 261.327 383.259 260.43 382.26 259.763C381.932 259.528 381.552 259.378 381.155 259.327C380.758 259.275 380.354 259.323 379.979 259.466L379.73 259.614C379.429 259.866 379.191 260.188 379.036 260.552C378.88 260.916 378.813 261.313 378.838 261.71V261.71Z" fill="#37474F"/>
        <path d="M370.545 266.681C370.604 267.897 370.945 269.082 371.54 270.138C372.135 271.194 372.966 272.091 373.966 272.755C374.412 273.049 374.929 273.21 375.459 273.221C375.862 273.211 376.255 273.094 376.6 272.882L384.562 268.184C384.654 268.152 384.738 268.101 384.811 268.036C385.111 267.778 385.348 267.453 385.503 267.085C385.658 266.718 385.726 266.318 385.702 265.919C385.634 264.702 385.287 263.519 384.69 262.464C384.092 261.409 383.26 260.512 382.26 259.845C381.932 259.61 381.553 259.46 381.156 259.409C380.758 259.357 380.355 259.405 379.979 259.548L379.731 259.696L371.747 264.374C371.355 264.604 371.033 264.942 370.82 265.351C370.608 265.759 370.512 266.22 370.545 266.681V266.681Z" fill="#FAFAFA"/>
        <path d="M370.544 266.685C370.605 267.904 370.946 269.091 371.541 270.15C372.135 271.209 372.966 272.11 373.965 272.78C374.297 273.015 374.68 273.165 375.081 273.216C375.481 273.268 375.888 273.22 376.267 273.077L376.516 272.929C376.819 272.674 377.057 272.349 377.213 271.981C377.368 271.612 377.434 271.212 377.407 270.812C377.338 269.593 376.99 268.407 376.393 267.349C375.795 266.291 374.964 265.389 373.965 264.716C373.633 264.482 373.251 264.332 372.85 264.281C372.449 264.229 372.042 264.277 371.664 264.42L371.415 264.568C371.117 264.827 370.883 265.153 370.732 265.52C370.58 265.888 370.516 266.287 370.544 266.685V266.685Z" fill="#E0E0E0"/>
        <path d="M437.87 260.035C450.456 250.235 462.524 250.299 460.347 226.34C458.502 215.757 455.931 214.995 445.832 210.974C441.395 209.217 435.465 207.884 431.919 212.032C431.53 212.553 431.1 213.042 430.633 213.493C429.588 214.173 428.388 214.566 427.15 214.635C424.786 214.753 422.538 215.72 420.805 217.366C419.623 218.741 419.167 220.625 418.006 222.001C416.89 223.079 415.69 224.063 414.418 224.943C413.507 225.75 412.772 226.744 412.261 227.859C411.75 228.975 411.475 230.188 411.453 231.419C411.537 232.827 411.922 234.199 412.581 235.439C413.24 236.679 414.158 237.756 415.268 238.595L421.613 234.869C424.205 233.049 429.555 239.547 427.254 242.976C423.583 248.436 437.87 260.035 437.87 260.035Z" fill="#FFEDE5"/>
        <path d="M291.271 308.208C295.294 291.615 296.455 250.152 296.455 250.152L178.719 253.75L185.126 279.931C186.184 285.833 186.746 291.817 186.806 297.816C186.806 297.816 198.231 319.426 232.113 323.214C252.932 325.24 273.804 319.946 291.271 308.208Z" fill="#FFEDE5"/>
        <path d="M296.519 250.152C296.664 251.464 295.834 264.015 295.834 264.015C280.78 276.947 232.488 283.487 181.789 266.28L171.048 223.949C171.048 223.949 207.501 207.61 182.868 152.792L209.347 150.675L256.354 149.469H271.781C284.466 162.048 295.187 176.538 303.569 192.434C309.727 204.16 317.565 221.346 296.519 250.152Z" fill="#455A64"/>
        <path d="M229.896 250.531C208.684 245.007 203.375 231.482 201.862 221.535C201.862 221.535 197.86 250.531 228.175 257.283C260.149 264.394 273.295 238.551 273.295 238.551C273.295 238.551 255.484 257.198 229.896 250.531Z" fill="#37474F"/>
        <path d="M49.3296 573.195C43.109 577.83 28.7808 578.952 16.1529 572.899C3.52496 566.846 -1.74185 549.617 0.621991 536.304C3.48349 520.07 11.3422 511.202 13.3328 501.424C15.3234 491.645 13.3328 478.142 16.3602 469.422C17.6081 466.07 19.5514 463.033 22.0567 460.52C24.562 458.006 27.5702 456.076 30.875 454.86C32.982 454.029 35.2475 453.702 37.4977 453.904C39.7478 454.105 41.9227 454.831 43.8554 456.024L47.5878 458.268L49.3296 573.195Z" fill="#263238"/>
        <path d="M64.1576 511.288L54.329 541.385C54.329 541.385 60.5496 562.847 57.0453 568.561C51.8822 577.027 42.7793 578.509 27.4558 573.726C9.93435 568.286 5.808 552.095 6.72036 539.523C7.96449 521.596 24.2003 508.113 22.3342 490.842C21.4218 482.376 22.5622 472.915 27.1033 465.635C32.1835 457.507 40.5191 455.983 49.1658 458.629C56.5891 460.915 63.1001 465.677 69.3829 470.143C71.1866 471.315 72.82 472.74 74.235 474.376C75.3606 475.908 76.2038 477.636 76.7232 479.477C77.8601 483.176 78.1996 487.082 77.7185 490.927C77.2624 494.525 75.0022 496.621 72.9079 499.393L64.1576 511.288Z" fill="url(#paint0_linear_1001_2516)"/>
        <path d="M106.517 497.046C105.916 496.813 75.8909 477.214 72.6561 475.733C69.4214 474.251 61.459 472.156 53.7661 490.337C48.2712 503.269 56.1714 508.052 56.1714 508.052L91.4217 529.429L106.517 497.046Z" fill="#FFEDE5"/>
        <path d="M54.326 541.385C47.973 538.144 40.9398 536.538 33.8393 536.708C33.3121 536.758 32.7809 536.676 32.2922 536.468C31.8035 536.259 31.3724 535.932 31.0366 535.514C30.7009 535.096 30.4708 534.6 30.3665 534.07C30.2623 533.541 30.2871 532.993 30.4387 532.475V532.475C30.6383 531.858 31.0128 531.315 31.5149 530.916C32.0169 530.516 32.6239 530.278 33.2588 530.231C38.0072 529.85 49.5361 529.702 57.1875 536.136C59.2196 540.327 54.326 541.385 54.326 541.385Z" fill="url(#paint1_linear_1001_2516)"/>
        <path d="M57.9335 527.627C51.7556 524.056 44.8137 522.086 37.7165 521.891C37.182 521.918 36.6493 521.809 36.1662 521.574C35.683 521.34 35.2645 520.986 34.948 520.546C34.6316 520.105 34.4271 519.592 34.353 519.051C34.2788 518.51 34.3373 517.958 34.5232 517.446V517.446C34.7519 516.839 35.1514 516.313 35.6716 515.937C36.1918 515.56 36.8095 515.349 37.4469 515.33C42.2161 515.203 53.745 515.69 61.0646 522.505C62.8686 526.844 57.9335 527.627 57.9335 527.627Z" fill="url(#paint2_linear_1001_2516)"/>
        <path opacity="0.3" d="M54.326 541.385C47.973 538.144 40.9398 536.538 33.8393 536.708C33.3121 536.758 32.7809 536.676 32.2922 536.468C31.8035 536.259 31.3724 535.932 31.0366 535.514C30.7009 535.096 30.4708 534.6 30.3665 534.07C30.2623 533.541 30.2871 532.993 30.4387 532.475V532.475C30.6383 531.858 31.0128 531.315 31.5149 530.916C32.0169 530.516 32.6239 530.278 33.2588 530.231C38.0072 529.85 49.5361 529.702 57.1875 536.136C59.2196 540.327 54.326 541.385 54.326 541.385Z" fill="black"/>
        <path opacity="0.3" d="M57.9335 527.627C51.7556 524.056 44.8137 522.086 37.7165 521.891C37.182 521.918 36.6493 521.809 36.1662 521.574C35.683 521.34 35.2645 520.986 34.948 520.546C34.6316 520.105 34.4271 519.592 34.353 519.051C34.2788 518.51 34.3373 517.958 34.5232 517.446V517.446C34.7519 516.839 35.1514 516.313 35.6716 515.937C36.1918 515.56 36.8095 515.349 37.4469 515.33C42.2161 515.203 53.745 515.69 61.0646 522.505C62.8686 526.844 57.9335 527.627 57.9335 527.627Z" fill="black"/>
        <path d="M363.93 576.455L402.934 560.665C402.27 550.4 399.782 536.727 402.374 509.869L358.125 501.276V546.485L363.93 576.455Z" fill="#FFEDE5"/>
        <path d="M475.214 611.423C476.251 614.628 476.058 618.115 474.675 621.18C473.348 624.037 458.729 632.44 439.01 631.085C424.387 630.04 410.305 625.019 398.223 616.545C390.717 611.465 382.879 610.513 373.133 609.941C363.388 609.37 350.532 604.396 348.396 599.74C346.26 595.083 348.728 587.041 348.728 587.041L475.214 611.423Z" fill="#263238"/>
        <path d="M395.652 548.604L397.207 548.265C398.052 548.034 398.936 547.99 399.799 548.138C400.757 548.44 401.608 549.021 402.246 549.81C404.176 552.322 405.857 555.023 407.264 557.874C411.411 564.753 420.079 570.468 429.555 575.653C436.003 579.188 442.307 582.003 448.963 584.987C455.619 587.971 464.743 590.003 470.051 593.665C477.785 598.977 478.801 612.354 470.051 617.624C462.462 622.195 442.452 627.127 421.468 621.053C410.022 617.751 397.332 605.284 382.34 604.12C372.802 603.358 354.741 600.628 348.603 593.241C346.343 589.961 349.371 579.547 351.859 570.573C354.575 560.774 355.571 543.503 358.764 544.371C358.764 544.371 357.893 546.805 359.137 548.117C360.381 549.429 364.756 552.054 366.042 553.154C368.192 555.393 369.927 558.01 371.164 560.88C371.677 562.176 372.636 563.236 373.859 563.864C375.477 564.478 376.679 563.441 378.006 562.785C379.8 561.965 381.821 561.823 383.709 562.382C383.527 560.438 383.187 558.512 382.693 556.625C382.48 556.029 382.43 555.386 382.547 554.763C382.808 554.182 383.235 553.695 383.771 553.366C387.362 550.948 391.409 549.326 395.652 548.604Z" fill="url(#paint3_linear_1001_2516)"/>
        <path d="M420.637 570.362C420.637 570.362 419.268 566.616 413.608 565.557C409.253 564.732 401.581 567.991 396.812 571.907C396.363 572.285 396.012 572.769 395.787 573.317C395.562 573.865 395.472 574.46 395.523 575.052C395.574 575.643 395.765 576.213 396.08 576.713C396.395 577.212 396.824 577.626 397.33 577.918V577.918C397.981 578.298 398.733 578.457 399.478 578.374C400.223 578.29 400.923 577.967 401.478 577.452C406.727 572.652 413.593 570.111 420.637 570.362V570.362Z" fill="url(#paint4_linear_1001_2516)"/>
        <path d="M434.095 578.046C433.155 576.693 431.912 575.59 430.469 574.828C429.026 574.065 427.425 573.667 425.801 573.665C425.801 573.665 414.458 574.004 407.429 580.671C407.001 581.038 406.666 581.506 406.452 582.033C406.238 582.561 406.152 583.134 406.201 583.703C406.25 584.271 406.432 584.82 406.732 585.302C407.033 585.783 407.442 586.184 407.927 586.47V586.47C408.542 586.819 409.25 586.962 409.949 586.879C410.649 586.795 411.305 586.489 411.825 586.004C414.72 583.065 418.222 580.825 422.076 579.448C425.93 578.071 430.036 577.592 434.095 578.046Z" fill="url(#paint5_linear_1001_2516)"/>
        <path d="M448.965 584.984C447.883 583.729 446.549 582.726 445.053 582.043C443.558 581.36 441.936 581.013 440.298 581.026C440.298 581.026 429.723 581.429 422.714 588.096C422.281 588.459 421.94 588.924 421.722 589.452C421.504 589.979 421.414 590.553 421.461 591.123C421.508 591.694 421.69 592.244 421.991 592.727C422.293 593.21 422.704 593.611 423.191 593.895V593.895C423.811 594.243 424.521 594.385 425.223 594.302C425.926 594.218 426.585 593.913 427.11 593.429C429.858 590.383 433.264 588.033 437.058 586.567C440.853 585.101 444.93 584.559 448.965 584.984Z" fill="url(#paint6_linear_1001_2516)"/>
        <path opacity="0.3" d="M420.637 570.362C420.637 570.362 419.268 566.616 413.608 565.557C409.253 564.732 401.581 567.991 396.812 571.907C396.363 572.285 396.012 572.769 395.787 573.317C395.562 573.865 395.472 574.46 395.523 575.052C395.574 575.643 395.765 576.213 396.08 576.713C396.395 577.212 396.824 577.626 397.33 577.918V577.918C397.981 578.298 398.733 578.457 399.478 578.374C400.223 578.29 400.923 577.967 401.478 577.452C406.727 572.652 413.593 570.111 420.637 570.362V570.362Z" fill="black"/>
        <path opacity="0.3" d="M434.095 578.046C433.155 576.693 431.912 575.59 430.469 574.828C429.026 574.065 427.425 573.667 425.801 573.665C425.801 573.665 414.458 574.004 407.429 580.671C407.001 581.038 406.666 581.506 406.452 582.033C406.238 582.561 406.152 583.134 406.201 583.703C406.25 584.271 406.432 584.82 406.732 585.302C407.033 585.783 407.442 586.184 407.927 586.47V586.47C408.542 586.819 409.25 586.962 409.949 586.879C410.649 586.795 411.305 586.489 411.825 586.004C414.72 583.065 418.222 580.825 422.076 579.448C425.93 578.071 430.036 577.592 434.095 578.046Z" fill="black"/>
        <path opacity="0.3" d="M448.965 584.984C447.883 583.729 446.549 582.726 445.053 582.043C443.558 581.36 441.936 581.013 440.298 581.026C440.298 581.026 429.723 581.429 422.714 588.096C422.281 588.459 421.94 588.924 421.722 589.452C421.504 589.979 421.414 590.553 421.461 591.123C421.508 591.694 421.69 592.244 421.991 592.727C422.293 593.21 422.704 593.611 423.191 593.895V593.895C423.811 594.243 424.521 594.385 425.223 594.302C425.926 594.218 426.585 593.913 427.11 593.429C429.858 590.383 433.264 588.033 437.058 586.567C440.853 585.101 444.93 584.559 448.965 584.984Z" fill="black"/>
        <path d="M390.593 349.417C360.941 342.623 290.13 327.511 290.13 327.511L291.27 308.208C265.662 321.754 211.687 317.923 186.805 297.816L182.886 318.282C173.452 329.811 165.281 342.359 158.522 355.703C152.84 367.195 143.343 385.122 152.799 426.881C158.356 451.412 165.758 515.987 165.758 515.987L93.1842 488.684C93.1842 488.684 86.9635 489.763 81.6967 503.648C78.5864 511.86 77.5496 519.755 80.7014 523.84C107.243 545.238 150.248 580.181 193.71 599.781C222.739 611.125 238.167 586.214 239.577 576.985C245.03 541.639 251.313 428.067 251.313 428.067L348.355 424.913C345.141 443.665 358.204 516.94 358.204 516.94C358.204 516.94 382.091 527.522 401.873 516.686C401.873 516.686 415.102 432.363 416.388 404.235C417.694 372.868 419.27 355.999 390.593 349.417Z" fill="url(#paint7_linear_1001_2516)"/>
        <path opacity="0.15" d="M348.357 424.914C348.357 419.856 351.654 402.183 362.872 392.764C362.872 392.764 347.486 395.579 340.436 425.168L348.357 424.914Z" fill="black"/>
        <path opacity="0.15" d="M165.761 515.988C165.761 515.988 167.834 543.863 173.06 557.451C173.06 557.451 159.976 533.322 158.545 513.236L165.761 515.988Z" fill="black"/>
        <path opacity="0.15" d="M290.11 327.512L291.25 308.231C265.642 321.755 211.688 317.924 186.826 297.838L182.907 318.284C183.115 318.474 199.081 335.322 240.593 337.502C282.106 339.682 290.11 327.512 290.11 327.512Z" fill="black"/>
        <path opacity="0.15" d="M251.395 428.068C251.051 417.592 248.624 407.296 244.261 397.807C239.898 388.318 233.69 379.833 226.015 372.869C226.015 372.869 248.326 383.452 255.791 416.956C255.791 416.956 272.379 409.062 281.047 385.399C281.047 385.399 278.392 409.062 265.039 422.523L305.286 426.311L251.395 428.068Z" fill="black"/>
        <path d="M238.455 -0.000281564C229.936 -0.0141907 221.498 1.68619 213.623 5.00362C205.748 8.32105 198.591 13.1905 192.562 19.3334C186.532 25.4763 181.748 32.7722 178.483 40.8039C175.217 48.8355 173.535 57.4454 173.533 66.1412V66.1412C173.533 74.8387 175.213 83.4509 178.477 91.485C181.741 99.5191 186.524 106.818 192.554 112.963C198.584 119.108 205.742 123.979 213.618 127.298C221.495 130.617 229.935 132.318 238.455 132.304V132.304C255.627 132.276 272.085 125.292 284.215 112.887C296.345 100.481 303.156 83.6683 303.15 66.1412V66.1412C303.15 48.6177 296.337 31.8104 284.208 19.4095C272.078 7.00859 255.623 0.027756 238.455 -0.000281564V-0.000281564Z" fill="#263238"/>
        <path d="M170.759 40.2116C173.102 40.1021 175.451 40.2369 177.768 40.6138C178.553 40.6665 179.291 41.0132 179.841 41.5874C180.16 42.0623 180.34 42.6203 180.359 43.196C180.895 46.8706 180.56 50.6225 179.385 54.1384C178.473 56.5936 175.632 57.8423 173.828 59.6202C166.819 66.5624 166.259 78.0551 169.017 87.6007C171.775 97.1462 177.311 105.655 180.899 114.883C184.486 124.111 186.393 135.223 181.313 144.514C179.343 148.07 175.756 150.864 176.192 155.097C176.689 160.282 181.127 165.235 183.034 169.912C185.128 175.454 185.841 181.439 185.108 187.331C184.583 194.657 181.918 201.654 177.457 207.417C174.046 211.474 169.644 214.535 164.698 216.29C159.751 218.045 154.438 218.43 149.298 217.407C147.131 217.021 145.08 216.13 143.305 214.804C140.257 212.306 139.034 208.222 137.375 204.602C132.046 192.898 120.786 184.389 117.365 171.965C113.653 158.737 119.833 144.98 127.422 133.741C130.968 128.492 134.928 123.349 136.67 117.211C139.013 108.935 136.96 100.131 136.421 91.5163C135.907 83.1019 136.854 74.661 139.22 66.5836C140.921 60.742 143.554 54.0114 148.012 49.8207C154.269 44.0146 162.313 40.6166 170.759 40.2116Z" fill="#263238"/>
        <path d="M278.974 30.2642C286.065 34.603 294.795 52.911 293.779 91.2201C292.908 123.688 282.561 131.667 277.377 133.974C272.193 136.281 262.199 134.799 252.495 133.106V152.599C252.495 152.599 265.848 168.558 264.936 177.511C264.023 186.464 245.527 188.475 233.003 179.627C220.479 170.78 209.966 153.785 209.966 153.785L210.381 108.957C210.381 108.957 204.596 114.671 194.912 105.993C186.97 98.8185 184.316 86.7754 190.578 80.4258C196.841 74.0763 208.349 75.7906 212.745 85.0187C212.745 85.0187 228.213 85.6537 248.887 74.1821C256.929 69.7888 263.844 63.5231 269.071 55.8928C274.299 48.2625 277.691 39.4824 278.974 30.2642V30.2642Z" fill="#FFEDE5"/>
        <path d="M258.281 82.927C258.285 83.7294 258.057 84.5151 257.626 85.186C257.194 85.8569 256.579 86.3834 255.857 86.6997C255.134 87.0159 254.337 87.108 253.563 86.9644C252.79 86.8209 252.075 86.448 251.508 85.8923C250.941 85.3366 250.547 84.6227 250.374 83.8398C250.202 83.0569 250.26 82.2396 250.54 81.4899C250.82 80.7401 251.31 80.0912 251.95 79.6241C252.589 79.157 253.349 78.8924 254.134 78.8633C255.206 78.8624 256.236 79.2851 257.009 80.0427C257.783 80.8003 258.238 81.8339 258.281 82.927Z" fill="#263238"/>
        <g style="mix-blend-mode:multiply" opacity="0.5">
            <g style="mix-blend-mode:multiply" opacity="0.5">
                <path d="M259.195 110.459L268.464 113.507C268.295 114.142 268.002 114.735 267.603 115.252C267.205 115.769 266.708 116.199 266.142 116.515C265.577 116.831 264.955 117.028 264.313 117.093C263.672 117.158 263.024 117.09 262.409 116.893C261.159 116.457 260.124 115.542 259.524 114.341C258.924 113.14 258.806 111.747 259.195 110.459Z" fill="#F28F8F"/>
            </g>
        </g>
        <path d="M291.147 70.52L283.081 64.763C283.418 64.2055 283.865 63.7245 284.391 63.3495C284.918 62.9746 285.515 62.7136 286.144 62.5828C286.773 62.4519 287.422 62.4539 288.051 62.5886C288.679 62.7233 289.274 62.9879 289.799 63.3661C290.87 64.1619 291.605 65.3434 291.856 66.6716C292.106 67.9997 291.853 69.3753 291.147 70.52Z" fill="#263238"/>
        <path d="M289.24 80.0905C289.248 80.8938 289.023 81.6815 288.594 82.3552C288.166 83.0288 287.552 83.5586 286.83 83.8781C286.108 84.1976 285.31 84.2927 284.535 84.1515C283.76 84.0103 283.043 83.6391 282.474 83.0843C281.905 82.5296 281.509 81.8158 281.335 81.0324C281.161 80.2489 281.218 79.4305 281.497 78.6796C281.777 77.9287 282.267 77.2785 282.906 76.8104C283.546 76.3424 284.306 76.0771 285.093 76.048C286.161 76.0469 287.189 76.4666 287.961 77.2197C288.734 77.9728 289.192 79.0012 289.24 80.0905Z" fill="#263238"/>
        <g style="mix-blend-mode:multiply" opacity="0.5">
            <g style="mix-blend-mode:multiply" opacity="0.5">
                <path d="M270.37 77.677L270.909 102.271L283.599 98.3131L270.37 77.677Z" fill="#F28F8F"/>
            </g>
        </g>
        <g style="mix-blend-mode:multiply" opacity="0.5">
            <g style="mix-blend-mode:multiply" opacity="0.5">
                <path d="M252.519 133.108C242.275 131.711 221.249 125.446 218.015 116.937C219.318 121.237 221.879 125.026 225.355 127.795C231.617 133.34 252.477 139.69 252.477 139.69L252.519 133.108Z" fill="#F28F8F"/>
            </g>
        </g>
        <path d="M182.868 152.813C162.796 154.273 154.523 156.876 143.346 182.19C133.289 204.943 109.236 263.825 103.223 276.947C97.2098 290.069 96.0693 295.34 101.15 309.076C105.297 320.272 139.178 384.594 142.89 393.97C146.602 403.346 148.24 412.828 154.564 423.749C160.888 434.671 170.883 445.338 178.783 447.857C190.499 451.603 205.739 446.396 206.175 439.179C206.61 431.961 188.985 419.918 184.195 403.896C187.383 406.034 190.74 407.896 194.231 409.463C198.979 411.452 204.288 411.008 205.864 408.256C207.439 405.505 202.691 403.833 198.461 399.536C195.931 396.975 191.452 391.218 185.729 386.139C181.852 382.71 175.507 381.694 172.645 377.926C171.111 375.916 164.144 358.497 158.898 342.983C152.428 323.743 143.906 298.133 143.906 298.133L178.783 224.055C178.783 224.055 206.133 196.202 182.868 152.813Z" fill="#FFEDE5"/>
        <path d="M142.827 393.972C142.827 393.972 150.851 377.399 172.582 377.928L166.838 364.891C166.838 364.891 145.626 366.415 136.689 381.082L142.827 393.972Z" fill="#37474F"/>
        <path d="M140.481 379.894L145.147 386.646C145.484 387.137 145.915 387.553 146.414 387.87C146.913 388.188 147.469 388.399 148.05 388.492C148.63 388.585 149.223 388.557 149.793 388.411C150.363 388.265 150.899 388.003 151.367 387.641L159.661 381.291C160.625 380.538 161.272 379.437 161.468 378.214C161.665 376.991 161.397 375.737 160.719 374.709L156.385 368.19C156.059 367.687 155.636 367.257 155.142 366.926C154.648 366.595 154.093 366.37 153.511 366.265C152.929 366.16 152.332 366.177 151.757 366.315C151.181 366.453 150.64 366.71 150.164 367.068L141.373 373.418C140.415 374.158 139.784 375.254 139.617 376.468C139.45 377.682 139.761 378.914 140.481 379.894V379.894Z" fill="#263238"/>
        <path d="M138.928 379.727L143.635 386.479C143.975 386.967 144.407 387.382 144.906 387.697C145.405 388.012 145.96 388.223 146.54 388.315C147.12 388.408 147.712 388.381 148.281 388.237C148.851 388.092 149.386 387.833 149.856 387.474L158.15 381.124C159.113 380.37 159.76 379.272 159.961 378.05C160.161 376.828 159.899 375.574 159.228 374.542L154.895 368.023C154.567 367.522 154.143 367.094 153.648 366.765C153.154 366.436 152.6 366.212 152.019 366.107C151.438 366.002 150.842 366.019 150.267 366.155C149.692 366.292 149.15 366.545 148.674 366.901L139.882 373.356C138.94 374.081 138.313 375.153 138.135 376.344C137.957 377.534 138.241 378.748 138.928 379.727Z" fill="#455A64"/>
        <path d="M158.377 377.503C158.272 378.34 157.847 379.101 157.195 379.619L148.901 385.969C148.613 386.204 148.278 386.372 147.92 386.464C147.563 386.555 147.19 386.567 146.827 386.498C146.472 386.442 146.131 386.314 145.824 386.121C145.518 385.928 145.253 385.675 145.044 385.376L140.316 378.603C139.917 378.041 139.74 377.346 139.819 376.656C139.847 376.238 139.966 375.831 140.166 375.465C140.367 375.099 140.645 374.783 140.98 374.54L149.772 368.19C150.066 367.967 150.402 367.809 150.759 367.725C151.115 367.641 151.485 367.634 151.845 367.703C152.2 367.767 152.539 367.903 152.842 368.103C153.145 368.303 153.405 368.563 153.608 368.867L157.941 375.386C158.348 376.009 158.525 376.759 158.439 377.503H158.377Z" fill="url(#paint8_linear_1001_2516)"/>
    </g>

</svg>
